<svg width="1440" height="1100" viewBox="0 0 1440 1100" fill="none" xmlns="http://www.w3.org/2000/svg">
<g clip-path="url(#clip0)">
<rect width="1440" height="1100" fill="white"/>
<g filter="url(#filter0_d)">
<rect x="426" y="316" width="588" height="447" rx="3" fill="#F6F9FE"/>
</g>
<path d="M654.479 747H652.962L648.443 741.935V747H647.186V737.006H648.443V741.846L652.853 737.006H654.281L649.94 741.859L654.479 747ZM662.19 743.233C662.19 744.459 661.881 745.416 661.261 746.104C660.641 746.793 659.784 747.137 658.69 747.137C658.011 747.137 657.41 746.979 656.886 746.665C656.362 746.346 655.958 745.89 655.676 745.298C655.393 744.705 655.252 744.017 655.252 743.233C655.252 742.012 655.557 741.062 656.168 740.383C656.779 739.699 657.635 739.357 658.738 739.357C659.796 739.357 660.634 739.706 661.254 740.403C661.878 741.096 662.19 742.039 662.19 743.233ZM656.523 743.233C656.523 744.177 656.708 744.895 657.077 745.387C657.451 745.874 658 746.118 658.725 746.118C659.44 746.118 659.985 745.874 660.358 745.387C660.732 744.895 660.919 744.177 660.919 743.233C660.919 742.29 660.73 741.581 660.352 741.107C659.978 740.629 659.429 740.39 658.704 740.39C657.25 740.39 656.523 741.338 656.523 743.233ZM665.376 739.494V742.618H669.45V739.494H670.681V747H669.45V743.657H665.376V747H664.146V739.494H665.376ZM681.263 743.247C681.263 744.364 680.935 745.264 680.278 745.947C679.627 746.631 678.717 747.018 677.551 747.109V750.363H676.348V747.109C675.199 747.014 674.295 746.624 673.634 745.94C672.973 745.257 672.643 744.359 672.643 743.247C672.643 742.108 672.971 741.203 673.627 740.533C674.283 739.859 675.204 739.476 676.389 739.385V736.363H677.551V739.385C678.704 739.499 679.611 739.897 680.271 740.581C680.932 741.265 681.263 742.153 681.263 743.247ZM673.928 743.247C673.928 744.983 674.748 745.936 676.389 746.104V740.403C675.532 740.49 674.908 740.775 674.516 741.258C674.124 741.736 673.928 742.399 673.928 743.247ZM679.991 743.247C679.991 741.538 679.178 740.595 677.551 740.417V746.104C679.178 745.927 679.991 744.974 679.991 743.247ZM686.424 747.137C685.298 747.137 684.414 746.797 683.771 746.118C683.133 745.435 682.814 744.496 682.814 743.302C682.814 742.099 683.113 741.142 683.71 740.431C684.307 739.715 685.114 739.357 686.13 739.357C687.073 739.357 687.825 739.663 688.386 740.273C688.946 740.88 689.227 741.702 689.227 742.741V743.486H684.086C684.109 744.339 684.325 744.986 684.735 745.428C685.146 745.87 685.727 746.091 686.479 746.091C686.88 746.091 687.26 746.057 687.62 745.988C687.98 745.915 688.402 745.776 688.885 745.571V746.651C688.47 746.829 688.08 746.954 687.716 747.027C687.351 747.1 686.921 747.137 686.424 747.137ZM686.116 740.362C685.528 740.362 685.063 740.551 684.722 740.93C684.38 741.308 684.177 741.834 684.113 742.509H687.935C687.925 741.807 687.764 741.274 687.449 740.909C687.135 740.545 686.69 740.362 686.116 740.362ZM697.799 749.604H696.609V747H691.387V749.604H690.211V745.961H690.812C691.419 745.118 691.89 744.143 692.228 743.035C692.565 741.923 692.743 740.743 692.761 739.494H696.705V745.961H697.799V749.604ZM695.516 745.961V740.465H693.848C693.779 741.472 693.583 742.484 693.26 743.5C692.941 744.512 692.549 745.332 692.084 745.961H695.516ZM702.461 747.137C701.335 747.137 700.451 746.797 699.809 746.118C699.171 745.435 698.852 744.496 698.852 743.302C698.852 742.099 699.15 741.142 699.747 740.431C700.344 739.715 701.151 739.357 702.167 739.357C703.11 739.357 703.862 739.663 704.423 740.273C704.983 740.88 705.264 741.702 705.264 742.741V743.486H700.123C700.146 744.339 700.362 744.986 700.772 745.428C701.183 745.87 701.764 746.091 702.516 746.091C702.917 746.091 703.297 746.057 703.657 745.988C704.017 745.915 704.439 745.776 704.922 745.571V746.651C704.507 746.829 704.118 746.954 703.753 747.027C703.388 747.1 702.958 747.137 702.461 747.137ZM702.153 740.362C701.565 740.362 701.101 740.551 700.759 740.93C700.417 741.308 700.214 741.834 700.15 742.509H703.972C703.963 741.807 703.801 741.274 703.486 740.909C703.172 740.545 702.728 740.362 702.153 740.362ZM708.401 739.494V742.618H712.476V739.494H713.706V747H712.476V743.657H708.401V747H707.171V739.494H708.401ZM723.502 749.604H722.299V747H716.099V739.494H717.329V745.961H721.212V739.494H722.442V745.975H723.502V749.604ZM726.106 739.494V744.074L726.052 745.4L726.024 745.783L730.044 739.494H731.555V747H730.406V742.577L730.427 741.627L730.461 740.725L726.469 747H724.944V739.494H726.106ZM738.589 747L738.35 745.934H738.295C737.921 746.403 737.548 746.722 737.174 746.891C736.805 747.055 736.338 747.137 735.772 747.137C735.034 747.137 734.455 746.943 734.036 746.556C733.617 746.168 733.407 745.621 733.407 744.915C733.407 743.393 734.608 742.595 737.01 742.522L738.281 742.475V742.03C738.281 741.461 738.158 741.041 737.912 740.772C737.666 740.499 737.272 740.362 736.729 740.362C736.333 740.362 735.957 740.422 735.602 740.54C735.251 740.659 734.92 740.791 734.61 740.937L734.234 740.014C734.613 739.813 735.025 739.656 735.472 739.542C735.918 739.428 736.36 739.371 736.798 739.371C737.705 739.371 738.379 739.572 738.821 739.973C739.263 740.374 739.484 741.012 739.484 741.887V747H738.589ZM736.053 746.146C736.741 746.146 737.281 745.961 737.673 745.592C738.069 745.218 738.268 744.689 738.268 744.006V743.329L737.16 743.377C736.299 743.409 735.67 743.546 735.273 743.787C734.882 744.029 734.686 744.409 734.686 744.929C734.686 745.321 734.804 745.621 735.041 745.831C735.283 746.041 735.62 746.146 736.053 746.146ZM747.53 747H746.279V740.52H744.071C743.944 742.16 743.771 743.45 743.552 744.389C743.338 745.323 743.055 746.009 742.704 746.446C742.358 746.879 741.913 747.096 741.371 747.096C741.075 747.096 740.858 747.064 740.722 747V746.077C740.817 746.114 740.945 746.132 741.104 746.132C741.606 746.132 742.005 745.603 742.301 744.546C742.602 743.489 742.836 741.805 743.005 739.494H747.53V747ZM751.14 742.577H753.368C755.319 742.577 756.294 743.286 756.294 744.703C756.294 745.451 756.041 746.02 755.535 746.412C755.029 746.804 754.289 747 753.313 747H749.909V739.494H751.14V742.577ZM755.063 744.771C755.063 744.37 754.922 744.074 754.64 743.883C754.357 743.691 753.885 743.596 753.225 743.596H751.14V746.009H753.259C753.838 746.009 754.282 745.904 754.592 745.694C754.906 745.485 755.063 745.177 755.063 744.771ZM759.466 739.494V742.618H763.54V739.494H764.771V747H763.54V743.657H759.466V747H758.235V739.494H759.466ZM773.685 743.233C773.685 744.459 773.375 745.416 772.755 746.104C772.135 746.793 771.278 747.137 770.185 747.137C769.506 747.137 768.904 746.979 768.38 746.665C767.856 746.346 767.452 745.89 767.17 745.298C766.887 744.705 766.746 744.017 766.746 743.233C766.746 742.012 767.051 741.062 767.662 740.383C768.273 739.699 769.13 739.357 770.232 739.357C771.29 739.357 772.128 739.706 772.748 740.403C773.372 741.096 773.685 742.039 773.685 743.233ZM768.018 743.233C768.018 744.177 768.202 744.895 768.571 745.387C768.945 745.874 769.494 746.118 770.219 746.118C770.934 746.118 771.479 745.874 771.853 745.387C772.226 744.895 772.413 744.177 772.413 743.233C772.413 742.29 772.224 741.581 771.846 741.107C771.472 740.629 770.923 740.39 770.198 740.39C768.744 740.39 768.018 741.338 768.018 743.233ZM778.647 747.137C777.567 747.137 776.727 746.806 776.125 746.146C775.523 745.48 775.223 744.528 775.223 743.288C775.223 742.03 775.526 741.062 776.132 740.383C776.743 739.699 777.611 739.357 778.736 739.357C779.101 739.357 779.461 739.396 779.816 739.474C780.176 739.547 780.473 739.642 780.705 739.761L780.329 740.786C779.696 740.549 779.156 740.431 778.709 740.431C777.952 740.431 777.394 740.67 777.034 741.148C776.674 741.622 776.494 742.331 776.494 743.274C776.494 744.181 776.674 744.876 777.034 745.359C777.394 745.838 777.927 746.077 778.634 746.077C779.295 746.077 779.944 745.931 780.582 745.64V746.733C780.062 747.002 779.418 747.137 778.647 747.137ZM787.548 740.533H785.094V747H783.877V740.533H781.457V739.494H787.548V740.533ZM790.269 742.577H792.497C794.448 742.577 795.423 743.286 795.423 744.703C795.423 745.451 795.17 746.02 794.664 746.412C794.158 746.804 793.418 747 792.442 747H789.038V739.494H790.269V742.577ZM794.192 744.771C794.192 744.37 794.051 744.074 793.769 743.883C793.486 743.691 793.014 743.596 792.354 743.596H790.269V746.009H792.388C792.966 746.009 793.411 745.904 793.721 745.694C794.035 745.485 794.192 745.177 794.192 744.771Z" fill="black" fill-opacity="0.4"/>
<path d="M645.825 748.401H796.168V749.099H645.825V748.401Z" fill="black" fill-opacity="0.4"/>
<g filter="url(#filter1_d)">
<rect x="620" y="575" width="200" height="50.8571" rx="3" fill="#27AE60"/>
</g>
<path d="M691.142 593.202H695.141C696.963 593.202 698.285 593.463 699.105 593.984C699.931 594.5 700.344 595.323 700.344 596.454C700.344 597.221 700.162 597.851 699.799 598.343C699.442 598.836 698.964 599.132 698.367 599.231V599.319C699.181 599.501 699.767 599.841 700.124 600.339C700.488 600.837 700.669 601.499 700.669 602.325C700.669 603.497 700.245 604.411 699.395 605.067C698.551 605.723 697.403 606.051 695.95 606.051H691.142V593.202ZM693.867 598.291H695.449C696.187 598.291 696.72 598.176 697.048 597.948C697.382 597.719 697.549 597.341 697.549 596.814C697.549 596.322 697.368 595.97 697.004 595.759C696.647 595.543 696.079 595.434 695.299 595.434H693.867V598.291ZM693.867 600.453V603.801H695.642C696.392 603.801 696.946 603.658 697.303 603.371C697.661 603.084 697.839 602.644 697.839 602.052C697.839 600.986 697.078 600.453 695.554 600.453H693.867ZM705.521 601.121C705.521 602.093 705.679 602.829 705.995 603.327C706.317 603.825 706.839 604.074 707.56 604.074C708.274 604.074 708.787 603.828 709.098 603.336C709.414 602.838 709.572 602.099 709.572 601.121C709.572 600.148 709.414 599.419 709.098 598.932C708.781 598.446 708.263 598.203 707.542 598.203C706.827 598.203 706.312 598.446 705.995 598.932C705.679 599.413 705.521 600.142 705.521 601.121ZM712.314 601.121C712.314 602.72 711.893 603.971 711.049 604.874C710.205 605.776 709.03 606.227 707.524 606.227C706.581 606.227 705.749 606.022 705.028 605.612C704.308 605.196 703.754 604.601 703.367 603.828C702.981 603.054 702.787 602.152 702.787 601.121C702.787 599.515 703.206 598.267 704.044 597.377C704.882 596.486 706.06 596.041 707.577 596.041C708.521 596.041 709.353 596.246 710.073 596.656C710.794 597.066 711.348 597.655 711.734 598.423C712.121 599.19 712.314 600.09 712.314 601.121ZM717.482 596.225V600.11C717.482 600.52 717.415 601.522 717.28 603.116L721.815 596.225H725.041V606.051H722.448V602.132C722.448 601.434 722.507 600.45 722.624 599.178L718.106 606.051H714.889V596.225H717.482ZM724.25 591.998C724.138 593.093 723.725 593.893 723.01 594.397C722.296 594.895 721.264 595.144 719.917 595.144C718.528 595.144 717.5 594.904 716.832 594.424C716.17 593.943 715.798 593.134 715.716 591.998H718.115C718.156 592.601 718.305 593.026 718.563 593.272C718.827 593.512 719.296 593.633 719.969 593.633C720.561 593.633 721.001 593.501 721.288 593.237C721.581 592.967 721.759 592.554 721.824 591.998H724.25ZM736.352 596.225V598.238H733.135V606.051H730.454V598.238H727.229V596.225H736.352ZM741.142 596.225V600.11C741.142 600.52 741.074 601.522 740.939 603.116L745.475 596.225H748.7V606.051H746.107V602.132C746.107 601.434 746.166 600.45 746.283 599.178L741.766 606.051H738.549V596.225H741.142Z" fill="white"/>
<rect x="468.5" y="451.591" width="505" height="76.3029" rx="4.5" fill="white" stroke="#A4E4FF"/>
<path d="M552.75 498.503H541.277V496.546L546.961 490.347C547.781 489.432 548.363 488.671 548.707 488.061C549.059 487.444 549.234 486.827 549.234 486.21C549.234 485.397 549.004 484.741 548.543 484.241C548.09 483.741 547.477 483.491 546.703 483.491C545.781 483.491 545.066 483.772 544.559 484.335C544.051 484.897 543.797 485.667 543.797 486.643H540.949C540.949 485.604 541.184 484.671 541.652 483.843C542.129 483.007 542.805 482.358 543.68 481.897C544.562 481.436 545.578 481.206 546.727 481.206C548.383 481.206 549.688 481.624 550.641 482.46C551.602 483.288 552.082 484.436 552.082 485.905C552.082 486.757 551.84 487.651 551.355 488.589C550.879 489.518 550.094 490.577 549 491.765L544.828 496.229H552.75V498.503ZM556.16 490.042L557.085 481.44H566.25V483.901H559.453L558.984 487.979C559.773 487.526 560.664 487.3 561.656 487.3C563.281 487.3 564.542 487.819 565.441 488.858C566.347 489.897 566.8 491.296 566.8 493.054C566.8 494.788 566.3 496.171 565.3 497.202C564.3 498.225 562.929 498.737 561.187 498.737C559.625 498.737 558.328 498.296 557.296 497.413C556.273 496.522 555.718 495.35 555.632 493.897H558.386C558.496 494.725 558.792 495.362 559.277 495.807C559.761 496.245 560.394 496.464 561.175 496.464C562.05 496.464 562.73 496.151 563.214 495.526C563.707 494.901 563.953 494.05 563.953 492.972C563.953 491.932 563.683 491.112 563.144 490.511C562.605 489.901 561.863 489.597 560.917 489.597C560.402 489.597 559.964 489.667 559.605 489.807C559.246 489.94 558.855 490.206 558.433 490.604L556.16 490.042ZM585.608 492.421H587.729V494.706H585.608V498.503H582.76V494.706H575.389L575.307 492.972L582.667 481.44H585.608V492.421ZM578.295 492.421H582.76V485.296L582.549 485.671L578.295 492.421ZM598.955 481.358V483.714H598.604C597.01 483.737 595.736 484.175 594.783 485.026C593.83 485.878 593.264 487.085 593.084 488.647C593.998 487.686 595.166 487.206 596.588 487.206C598.096 487.206 599.283 487.737 600.15 488.8C601.025 489.862 601.463 491.233 601.463 492.913C601.463 494.647 600.951 496.054 599.928 497.132C598.912 498.202 597.576 498.737 595.92 498.737C594.217 498.737 592.834 498.108 591.772 496.85C590.717 495.593 590.19 493.944 590.19 491.905V490.932C590.19 487.94 590.916 485.597 592.369 483.901C593.83 482.206 595.928 481.358 598.662 481.358H598.955ZM595.897 489.503C595.272 489.503 594.697 489.679 594.174 490.03C593.658 490.382 593.279 490.85 593.037 491.436V492.304C593.037 493.569 593.303 494.577 593.834 495.327C594.365 496.069 595.053 496.44 595.897 496.44C596.74 496.44 597.408 496.124 597.9 495.491C598.393 494.858 598.639 494.026 598.639 492.995C598.639 491.964 598.389 491.124 597.889 490.475C597.389 489.827 596.725 489.503 595.897 489.503ZM615.572 483.022L608.752 498.503H605.763L612.572 483.725H603.748V481.44H615.572V483.022ZM636.266 498.503H624.794V496.546L630.477 490.347C631.298 489.432 631.88 488.671 632.223 488.061C632.575 487.444 632.751 486.827 632.751 486.21C632.751 485.397 632.52 484.741 632.059 484.241C631.606 483.741 630.993 483.491 630.219 483.491C629.298 483.491 628.583 483.772 628.075 484.335C627.567 484.897 627.313 485.667 627.313 486.643H624.465C624.465 485.604 624.7 484.671 625.169 483.843C625.645 483.007 626.321 482.358 627.196 481.897C628.079 481.436 629.094 481.206 630.243 481.206C631.899 481.206 633.204 481.624 634.157 482.46C635.118 483.288 635.598 484.436 635.598 485.905C635.598 486.757 635.356 487.651 634.872 488.589C634.395 489.518 633.61 490.577 632.516 491.765L628.344 496.229H636.266V498.503ZM647.774 481.358V483.714H647.422C645.828 483.737 644.555 484.175 643.602 485.026C642.649 485.878 642.082 487.085 641.902 488.647C642.817 487.686 643.985 487.206 645.406 487.206C646.914 487.206 648.102 487.737 648.969 488.8C649.844 489.862 650.281 491.233 650.281 492.913C650.281 494.647 649.77 496.054 648.746 497.132C647.731 498.202 646.395 498.737 644.738 498.737C643.035 498.737 641.652 498.108 640.59 496.85C639.535 495.593 639.008 493.944 639.008 491.905V490.932C639.008 487.94 639.735 485.597 641.188 483.901C642.649 482.206 644.746 481.358 647.481 481.358H647.774ZM644.715 489.503C644.09 489.503 643.516 489.679 642.992 490.03C642.477 490.382 642.098 490.85 641.856 491.436V492.304C641.856 493.569 642.121 494.577 642.652 495.327C643.184 496.069 643.871 496.44 644.715 496.44C645.559 496.44 646.227 496.124 646.719 495.491C647.211 494.858 647.457 494.026 647.457 492.995C647.457 491.964 647.207 491.124 646.707 490.475C646.207 489.827 645.543 489.503 644.715 489.503ZM670.847 483.022L664.027 498.503H661.038L667.847 483.725H659.023V481.44H670.847V483.022ZM674.374 490.042L675.3 481.44H684.464V483.901H677.667L677.198 487.979C677.987 487.526 678.878 487.3 679.87 487.3C681.495 487.3 682.757 487.819 683.655 488.858C684.561 489.897 685.014 491.296 685.014 493.054C685.014 494.788 684.514 496.171 683.514 497.202C682.514 498.225 681.143 498.737 679.401 498.737C677.839 498.737 676.542 498.296 675.51 497.413C674.487 496.522 673.932 495.35 673.846 493.897H676.6C676.71 494.725 677.007 495.362 677.491 495.807C677.975 496.245 678.608 496.464 679.389 496.464C680.264 496.464 680.944 496.151 681.428 495.526C681.921 494.901 682.167 494.05 682.167 492.972C682.167 491.932 681.897 491.112 681.358 490.511C680.819 489.901 680.077 489.597 679.132 489.597C678.616 489.597 678.178 489.667 677.819 489.807C677.46 489.94 677.069 490.206 676.647 490.604L674.374 490.042Z" fill="#27282A"/>
<path d="M485.039 489.116H489.492V491.718H485.039V496.792H482.273V491.718H477.797V489.116H482.273V484.37H485.039V489.116ZM495.433 488.671H497.167C498.042 488.663 498.734 488.436 499.242 487.991C499.757 487.546 500.015 486.901 500.015 486.057C500.015 485.245 499.8 484.616 499.371 484.171C498.949 483.718 498.3 483.491 497.425 483.491C496.66 483.491 496.031 483.714 495.539 484.159C495.046 484.597 494.8 485.171 494.8 485.882H491.953C491.953 485.007 492.183 484.21 492.644 483.491C493.113 482.772 493.761 482.214 494.589 481.815C495.425 481.409 496.359 481.206 497.39 481.206C499.093 481.206 500.429 481.636 501.398 482.495C502.375 483.347 502.863 484.534 502.863 486.057C502.863 486.823 502.617 487.546 502.125 488.225C501.64 488.897 501.011 489.405 500.238 489.749C501.175 490.069 501.886 490.573 502.371 491.261C502.863 491.948 503.109 492.768 503.109 493.722C503.109 495.253 502.582 496.472 501.527 497.378C500.48 498.284 499.101 498.737 497.39 498.737C495.75 498.737 494.406 498.3 493.359 497.425C492.312 496.55 491.789 495.386 491.789 493.932H494.636C494.636 494.682 494.886 495.292 495.386 495.761C495.894 496.229 496.574 496.464 497.425 496.464C498.308 496.464 499.003 496.229 499.511 495.761C500.019 495.292 500.273 494.612 500.273 493.722C500.273 492.823 500.007 492.132 499.476 491.647C498.945 491.163 498.156 490.921 497.109 490.921H495.433V488.671ZM517.616 483.022L510.796 498.503H507.808L514.616 483.725H505.792V481.44H517.616V483.022ZM521.143 490.042L522.069 481.44H531.233V483.901H524.436L523.967 487.979C524.756 487.526 525.647 487.3 526.639 487.3C528.264 487.3 529.526 487.819 530.424 488.858C531.331 489.897 531.784 491.296 531.784 493.054C531.784 494.788 531.284 496.171 530.284 497.202C529.284 498.225 527.913 498.737 526.17 498.737C524.608 498.737 523.311 498.296 522.28 497.413C521.256 496.522 520.702 495.35 520.616 493.897H523.37C523.479 494.725 523.776 495.362 524.26 495.807C524.745 496.245 525.377 496.464 526.159 496.464C527.034 496.464 527.713 496.151 528.198 495.526C528.69 494.901 528.936 494.05 528.936 492.972C528.936 491.932 528.667 491.112 528.127 490.511C527.588 489.901 526.846 489.597 525.901 489.597C525.385 489.597 524.948 489.667 524.588 489.807C524.229 489.94 523.838 490.206 523.417 490.604L521.143 490.042Z" fill="#8B8B8B"/>
<path d="M482.113 441.697H479.994V433.467H477.28V431.703H484.827V433.467H482.113V441.697ZM489.588 435.394C489.146 435.394 488.799 435.536 488.549 435.818C488.298 436.096 488.154 436.493 488.118 437.008H491.044C491.035 436.493 490.9 436.096 490.64 435.818C490.381 435.536 490.03 435.394 489.588 435.394ZM489.882 441.834C488.651 441.834 487.69 441.494 486.997 440.815C486.304 440.136 485.958 439.175 485.958 437.931C485.958 436.65 486.277 435.661 486.915 434.964C487.557 434.262 488.444 433.911 489.574 433.911C490.654 433.911 491.495 434.219 492.096 434.834C492.698 435.449 492.999 436.299 492.999 437.384V438.395H488.07C488.093 438.988 488.268 439.45 488.596 439.783C488.925 440.116 489.385 440.282 489.977 440.282C490.438 440.282 490.873 440.234 491.283 440.139C491.693 440.043 492.122 439.89 492.568 439.681V441.294C492.204 441.476 491.814 441.611 491.399 441.697C490.985 441.788 490.479 441.834 489.882 441.834ZM502.237 441.697H500.152V435.62H498.231C498.085 437.329 497.907 438.605 497.698 439.448C497.488 440.287 497.208 440.895 496.857 441.273C496.511 441.647 496.055 441.834 495.49 441.834C495.007 441.834 494.61 441.761 494.3 441.615V439.947C494.524 440.038 494.747 440.084 494.97 440.084C495.23 440.084 495.447 439.897 495.62 439.523C495.797 439.15 495.955 438.528 496.091 437.657C496.233 436.782 496.353 435.581 496.454 434.055H502.237V441.697ZM508.296 435.394C507.854 435.394 507.508 435.536 507.257 435.818C507.007 436.096 506.863 436.493 506.827 437.008H509.752C509.743 436.493 509.609 436.096 509.349 435.818C509.089 435.536 508.738 435.394 508.296 435.394ZM508.59 441.834C507.36 441.834 506.398 441.494 505.705 440.815C505.013 440.136 504.666 439.175 504.666 437.931C504.666 436.65 504.985 435.661 505.623 434.964C506.266 434.262 507.152 433.911 508.283 433.911C509.363 433.911 510.204 434.219 510.805 434.834C511.407 435.449 511.707 436.299 511.707 437.384V438.395H506.779C506.801 438.988 506.977 439.45 507.305 439.783C507.633 440.116 508.093 440.282 508.686 440.282C509.146 440.282 509.581 440.234 509.992 440.139C510.402 440.043 510.83 439.89 511.277 439.681V441.294C510.912 441.476 510.523 441.611 510.108 441.697C509.693 441.788 509.187 441.834 508.59 441.834ZM519.688 434.014C520.964 434.118 521.964 434.513 522.689 435.196C523.413 435.88 523.776 436.773 523.776 437.876C523.776 439.002 523.418 439.904 522.702 440.583C521.987 441.257 520.982 441.647 519.688 441.752V445.06H517.753V441.752C516.463 441.633 515.454 441.23 514.725 440.542C514 439.849 513.638 438.96 513.638 437.876C513.638 436.723 513.989 435.814 514.691 435.148C515.392 434.478 516.413 434.1 517.753 434.014V431.06H519.688V434.014ZM515.784 437.876C515.784 438.518 515.96 439.043 516.311 439.448C516.662 439.849 517.142 440.091 517.753 440.173V435.579C517.165 435.656 516.689 435.905 516.324 436.324C515.964 436.743 515.784 437.261 515.784 437.876ZM521.636 437.876C521.636 437.274 521.465 436.768 521.123 436.358C520.781 435.944 520.303 435.693 519.688 435.606V440.173C520.294 440.091 520.77 439.847 521.116 439.441C521.463 439.036 521.636 438.514 521.636 437.876ZM527.866 437.862C527.866 438.619 527.989 439.191 528.235 439.578C528.486 439.965 528.892 440.159 529.452 440.159C530.008 440.159 530.407 439.968 530.648 439.585C530.895 439.197 531.018 438.623 531.018 437.862C531.018 437.106 530.895 436.538 530.648 436.16C530.402 435.782 529.999 435.593 529.438 435.593C528.882 435.593 528.481 435.782 528.235 436.16C527.989 436.534 527.866 437.101 527.866 437.862ZM533.15 437.862C533.15 439.106 532.822 440.079 532.166 440.781C531.51 441.483 530.596 441.834 529.425 441.834C528.691 441.834 528.044 441.674 527.483 441.355C526.923 441.032 526.492 440.569 526.191 439.968C525.891 439.366 525.74 438.664 525.74 437.862C525.74 436.613 526.066 435.643 526.718 434.95C527.369 434.257 528.285 433.911 529.466 433.911C530.2 433.911 530.847 434.071 531.407 434.39C531.968 434.709 532.398 435.167 532.699 435.764C533 436.361 533.15 437.06 533.15 437.862ZM537.658 434.055V436.994H540.57V434.055H542.655V441.697H540.57V438.546H537.658V441.697H535.573V434.055H537.658Z" fill="#8B8B8B"/>
<path d="M605.035 383H590.234V357.301H605.035V361.766H595.684V367.408H604.385V371.873H595.684V378.5H605.035V383ZM639.98 379.08H642.863V390.049H638.029V383H610.712V363.348H616.074V378.975H622.665V363.348H628.027V378.975H634.618V363.348H639.98V379.08ZM655.044 366.793C653.907 366.793 653.016 367.156 652.372 367.883C651.727 368.598 651.358 369.617 651.264 370.941H658.788C658.764 369.617 658.419 368.598 657.751 367.883C657.083 367.156 656.18 366.793 655.044 366.793ZM655.799 383.352C652.635 383.352 650.163 382.479 648.381 380.732C646.6 378.986 645.71 376.514 645.71 373.314C645.71 370.021 646.53 367.479 648.17 365.686C649.823 363.881 652.102 362.979 655.008 362.979C657.786 362.979 659.948 363.77 661.495 365.352C663.042 366.934 663.815 369.119 663.815 371.908V374.51H651.141C651.2 376.033 651.651 377.223 652.495 378.078C653.338 378.934 654.522 379.361 656.045 379.361C657.229 379.361 658.348 379.238 659.403 378.992C660.458 378.746 661.559 378.354 662.708 377.814V381.963C661.77 382.432 660.768 382.777 659.702 383C658.635 383.234 657.335 383.352 655.799 383.352ZM684.257 363.348V370.906H691.745V363.348H697.107V383H691.745V374.896H684.257V383H678.896V363.348H684.257ZM711.59 366.793C710.454 366.793 709.563 367.156 708.918 367.883C708.274 368.598 707.905 369.617 707.811 370.941H715.334C715.311 369.617 714.965 368.598 714.297 367.883C713.629 367.156 712.727 366.793 711.59 366.793ZM712.346 383.352C709.182 383.352 706.709 382.479 704.928 380.732C703.147 378.986 702.256 376.514 702.256 373.314C702.256 370.021 703.077 367.479 704.717 365.686C706.37 363.881 708.649 362.979 711.555 362.979C714.332 362.979 716.495 363.77 718.041 365.352C719.588 366.934 720.362 369.119 720.362 371.908V374.51H707.688C707.746 376.033 708.198 377.223 709.041 378.078C709.885 378.934 711.069 379.361 712.592 379.361C713.776 379.361 714.895 379.238 715.95 378.992C717.004 378.746 718.106 378.354 719.254 377.814V381.963C718.317 382.432 717.315 382.777 716.248 383C715.182 383.234 713.881 383.352 712.346 383.352ZM750.209 383H745.199V367.514L744.918 368.604C744.285 371.076 743.716 372.945 743.213 374.211L739.732 383H735.918L732.384 374.141C731.881 372.852 731.341 371.041 730.767 368.709L730.433 367.514V383H725.441V363.348H732.824L736.199 371.732C736.55 372.635 736.873 373.672 737.166 374.844C737.47 376.016 737.675 377.018 737.781 377.85C738.168 376.092 738.466 374.832 738.677 374.07C738.9 373.297 739.14 372.588 739.398 371.943C739.656 371.299 740.822 368.434 742.896 363.348H750.209V383ZM761.933 363.348V370.906H769.421V363.348H774.782V383H769.421V374.896H761.933V383H756.571V363.348H761.933ZM785.399 373.139C785.399 375.084 785.715 376.555 786.348 377.551C786.992 378.547 788.035 379.045 789.477 379.045C790.906 379.045 791.932 378.553 792.553 377.568C793.186 376.572 793.502 375.096 793.502 373.139C793.502 371.193 793.186 369.734 792.553 368.762C791.92 367.789 790.883 367.303 789.442 367.303C788.012 367.303 786.981 367.789 786.348 368.762C785.715 369.723 785.399 371.182 785.399 373.139ZM798.987 373.139C798.987 376.338 798.143 378.84 796.455 380.645C794.768 382.449 792.418 383.352 789.406 383.352C787.52 383.352 785.856 382.941 784.414 382.121C782.973 381.289 781.865 380.1 781.092 378.553C780.319 377.006 779.932 375.201 779.932 373.139C779.932 369.928 780.77 367.432 782.446 365.65C784.121 363.869 786.477 362.979 789.512 362.979C791.399 362.979 793.063 363.389 794.504 364.209C795.946 365.029 797.053 366.207 797.826 367.742C798.6 369.277 798.987 371.076 798.987 373.139ZM817.707 363.348V367.373H809.498V383H804.136V363.348H817.707ZM826.179 373.139C826.179 375.084 826.495 376.555 827.128 377.551C827.772 378.547 828.815 379.045 830.257 379.045C831.686 379.045 832.712 378.553 833.333 377.568C833.966 376.572 834.282 375.096 834.282 373.139C834.282 371.193 833.966 369.734 833.333 368.762C832.7 367.789 831.663 367.303 830.221 367.303C828.792 367.303 827.761 367.789 827.128 368.762C826.495 369.723 826.179 371.182 826.179 373.139ZM839.766 373.139C839.766 376.338 838.923 378.84 837.235 380.645C835.548 382.449 833.198 383.352 830.186 383.352C828.3 383.352 826.636 382.941 825.194 382.121C823.753 381.289 822.645 380.1 821.872 378.553C821.098 377.006 820.712 375.201 820.712 373.139C820.712 369.928 821.55 367.432 823.225 365.65C824.901 363.869 827.257 362.979 830.292 362.979C832.179 362.979 833.843 363.389 835.284 364.209C836.725 365.029 837.833 366.207 838.606 367.742C839.38 369.277 839.766 371.076 839.766 373.139ZM848.908 382.532C848.284 383.132 847.516 383.432 846.604 383.432C845.692 383.432 844.924 383.132 844.3 382.532C843.7 381.932 843.4 381.188 843.4 380.3C843.4 379.412 843.7 378.656 844.3 378.032C844.924 377.408 845.692 377.096 846.604 377.096C847.516 377.096 848.284 377.408 848.908 378.032C849.556 378.656 849.88 379.412 849.88 380.3C849.88 381.188 849.556 381.932 848.908 382.532ZM858.698 382.532C858.074 383.132 857.306 383.432 856.394 383.432C855.482 383.432 854.714 383.132 854.09 382.532C853.49 381.932 853.19 381.188 853.19 380.3C853.19 379.412 853.49 378.656 854.09 378.032C854.714 377.408 855.482 377.096 856.394 377.096C857.306 377.096 858.074 377.408 858.698 378.032C859.346 378.656 859.67 379.412 859.67 380.3C859.67 381.188 859.346 381.932 858.698 382.532ZM868.488 382.532C867.864 383.132 867.096 383.432 866.184 383.432C865.272 383.432 864.504 383.132 863.88 382.532C863.28 381.932 862.98 381.188 862.98 380.3C862.98 379.412 863.28 378.656 863.88 378.032C864.504 377.408 865.272 377.096 866.184 377.096C867.096 377.096 867.864 377.408 868.488 378.032C869.136 378.656 869.46 379.412 869.46 380.3C869.46 381.188 869.136 381.932 868.488 382.532Z" fill="#27282A"/>
<path d="M1267.61 83.7598C1267.51 84.8216 1267.11 85.651 1266.43 86.248C1265.75 86.8405 1264.84 87.1367 1263.7 87.1367C1262.91 87.1367 1262.21 86.9499 1261.6 86.5762C1261 86.1979 1260.54 85.6624 1260.21 84.9697C1259.88 84.277 1259.71 83.4727 1259.7 82.5566V81.627C1259.7 80.6882 1259.86 79.861 1260.2 79.1455C1260.53 78.43 1261.01 77.8786 1261.62 77.4912C1262.25 77.1038 1262.97 76.9102 1263.79 76.9102C1264.88 76.9102 1265.77 77.2087 1266.44 77.8057C1267.11 78.4027 1267.5 79.2458 1267.61 80.335H1265.88C1265.8 79.6195 1265.59 79.1045 1265.25 78.79C1264.92 78.471 1264.43 78.3115 1263.79 78.3115C1263.03 78.3115 1262.45 78.5872 1262.05 79.1387C1261.65 79.6855 1261.44 80.4899 1261.43 81.5518V82.4336C1261.43 83.5091 1261.62 84.3294 1262.01 84.8945C1262.4 85.4596 1262.96 85.7422 1263.7 85.7422C1264.38 85.7422 1264.89 85.5895 1265.23 85.2842C1265.58 84.9788 1265.79 84.4707 1265.88 83.7598H1267.61ZM1276.22 80.9229H1273.82V87H1272.16V80.9229H1269.79V79.6035H1276.22V80.9229ZM1278.21 83.2334C1278.21 82.5088 1278.36 81.8571 1278.64 81.2783C1278.93 80.695 1279.33 80.2484 1279.85 79.9385C1280.37 79.624 1280.97 79.4668 1281.64 79.4668C1282.64 79.4668 1283.45 79.7881 1284.07 80.4307C1284.7 81.0732 1285.03 81.9255 1285.08 82.9873L1285.09 83.377C1285.09 84.1061 1284.95 84.7578 1284.67 85.332C1284.39 85.9062 1283.99 86.3506 1283.46 86.665C1282.94 86.9795 1282.34 87.1367 1281.66 87.1367C1280.61 87.1367 1279.78 86.7904 1279.15 86.0977C1278.53 85.4004 1278.21 84.473 1278.21 83.3154V83.2334ZM1279.87 83.377C1279.87 84.138 1280.03 84.735 1280.35 85.168C1280.66 85.5964 1281.1 85.8105 1281.66 85.8105C1282.22 85.8105 1282.65 85.5918 1282.96 85.1543C1283.28 84.7168 1283.44 84.0765 1283.44 83.2334C1283.44 82.486 1283.27 81.8936 1282.95 81.4561C1282.63 81.0186 1282.2 80.7998 1281.64 80.7998C1281.1 80.7998 1280.67 81.0163 1280.35 81.4492C1280.03 81.8776 1279.87 82.5202 1279.87 83.377ZM1292.51 79.6035H1294.17V87H1292.51V82.0645L1289.61 87H1287.96V79.6035H1289.61V84.5391L1292.51 79.6035ZM1301.73 84.9561L1303.91 79.6035H1305.99V87H1304.33V82.1055L1302.29 87H1301.17L1299.12 82.0781V87H1297.46V79.6035H1299.55L1301.73 84.9561ZM1308.95 83.2334C1308.95 82.5088 1309.09 81.8571 1309.38 81.2783C1309.67 80.695 1310.07 80.2484 1310.59 79.9385C1311.11 79.624 1311.71 79.4668 1312.38 79.4668C1313.38 79.4668 1314.19 79.7881 1314.81 80.4307C1315.43 81.0732 1315.77 81.9255 1315.82 82.9873L1315.83 83.377C1315.83 84.1061 1315.69 84.7578 1315.4 85.332C1315.13 85.9062 1314.72 86.3506 1314.2 86.665C1313.68 86.9795 1313.08 87.1367 1312.4 87.1367C1311.35 87.1367 1310.52 86.7904 1309.89 86.0977C1309.26 85.4004 1308.95 84.473 1308.95 83.3154V83.2334ZM1310.61 83.377C1310.61 84.138 1310.77 84.735 1311.08 85.168C1311.4 85.5964 1311.83 85.8105 1312.4 85.8105C1312.96 85.8105 1313.39 85.5918 1313.7 85.1543C1314.02 84.7168 1314.17 84.0765 1314.17 83.2334C1314.17 82.486 1314.01 81.8936 1313.69 81.4561C1313.37 81.0186 1312.93 80.7998 1312.38 80.7998C1311.84 80.7998 1311.41 81.0163 1311.09 81.4492C1310.77 81.8776 1310.61 82.5202 1310.61 83.377ZM1321.67 85.8105C1322.09 85.8105 1322.43 85.6898 1322.7 85.4482C1322.98 85.2067 1323.12 84.9082 1323.14 84.5527H1324.71C1324.69 85.013 1324.54 85.4437 1324.27 85.8447C1324.01 86.2412 1323.64 86.5557 1323.18 86.7881C1322.72 87.0205 1322.22 87.1367 1321.69 87.1367C1320.66 87.1367 1319.84 86.8018 1319.23 86.1318C1318.62 85.4619 1318.32 84.5368 1318.32 83.3564V83.1855C1318.32 82.0599 1318.62 81.1598 1319.22 80.4854C1319.82 79.8063 1320.65 79.4668 1321.68 79.4668C1322.56 79.4668 1323.28 79.7243 1323.83 80.2393C1324.39 80.7497 1324.68 81.4219 1324.71 82.2559H1323.14C1323.12 81.832 1322.98 81.4834 1322.7 81.21C1322.43 80.9365 1322.09 80.7998 1321.67 80.7998C1321.13 80.7998 1320.72 80.9958 1320.43 81.3877C1320.13 81.7751 1319.99 82.3652 1319.98 83.1582V83.4248C1319.98 84.2269 1320.13 84.8262 1320.41 85.2227C1320.7 85.6146 1321.12 85.8105 1321.67 85.8105ZM1333.18 80.9229H1330.78V87H1329.12V80.9229H1326.75V79.6035H1333.18V80.9229ZM1337.48 81.9551H1339.11C1339.71 81.9551 1340.24 82.0599 1340.69 82.2695C1341.14 82.4792 1341.49 82.7731 1341.72 83.1514C1341.95 83.5296 1342.07 83.9694 1342.07 84.4707C1342.07 85.2318 1341.8 85.8424 1341.27 86.3027C1340.73 86.763 1340.01 86.9954 1339.12 87H1335.82V79.6035H1337.48V81.9551ZM1337.48 83.2881V85.6738H1339.1C1339.51 85.6738 1339.82 85.5736 1340.06 85.373C1340.29 85.168 1340.41 84.8786 1340.41 84.5049C1340.41 84.1312 1340.3 83.8372 1340.06 83.623C1339.84 83.4043 1339.53 83.2926 1339.13 83.2881H1337.48Z" fill="#6E6E6E"/>
<path d="M1136.96 82.2832C1136.96 83.2585 1136.79 84.1152 1136.45 84.8535C1136.11 85.5872 1135.63 86.1523 1135 86.5488C1134.38 86.9408 1133.66 87.1367 1132.84 87.1367C1132.03 87.1367 1131.31 86.9408 1130.68 86.5488C1130.05 86.1523 1129.56 85.5895 1129.22 84.8604C1128.88 84.1312 1128.7 83.2904 1128.7 82.3379V81.7773C1128.7 80.8066 1128.87 79.9499 1129.21 79.207C1129.56 78.4642 1130.04 77.8968 1130.67 77.5049C1131.29 77.1084 1132.01 76.9102 1132.83 76.9102C1133.64 76.9102 1134.36 77.1061 1134.98 77.498C1135.61 77.8854 1136.09 78.446 1136.44 79.1797C1136.78 79.9089 1136.95 80.7588 1136.96 81.7295V82.2832ZM1135.23 81.7637C1135.23 80.6608 1135.02 79.8154 1134.6 79.2275C1134.18 78.6396 1133.59 78.3457 1132.83 78.3457C1132.08 78.3457 1131.49 78.6396 1131.07 79.2275C1130.65 79.8109 1130.44 80.638 1130.43 81.709V82.2832C1130.43 83.377 1130.64 84.2223 1131.06 84.8193C1131.49 85.4163 1132.08 85.7148 1132.84 85.7148C1133.61 85.7148 1134.19 85.4232 1134.6 84.8398C1135.02 84.2565 1135.23 83.4043 1135.23 82.2832V81.7637ZM1145.74 80.9229H1143.34V87H1141.68V80.9229H1139.31V79.6035H1145.74V80.9229ZM1153.85 81.627C1153.85 81.9551 1153.75 82.2581 1153.55 82.5361C1153.35 82.8096 1153.08 83.0283 1152.72 83.1924C1153.56 83.4886 1153.99 84.0605 1153.99 84.9082C1153.99 85.5872 1153.71 86.1296 1153.16 86.5352C1152.61 86.9362 1151.87 87.1367 1150.95 87.1367C1150.38 87.1367 1149.87 87.0433 1149.4 86.8564C1148.94 86.665 1148.57 86.3962 1148.31 86.0498C1148.05 85.6989 1147.92 85.2842 1147.92 84.8057H1149.58C1149.58 85.1064 1149.71 85.3594 1149.98 85.5645C1150.25 85.765 1150.59 85.8652 1151 85.8652C1151.41 85.8652 1151.73 85.7718 1151.96 85.585C1152.21 85.3936 1152.33 85.1452 1152.33 84.8398C1152.33 84.4798 1152.22 84.2201 1152.01 84.0605C1151.8 83.901 1151.48 83.8213 1151.04 83.8213H1149.85V82.625H1151.08C1151.83 82.6159 1152.2 82.3105 1152.2 81.709C1152.2 81.4082 1152.09 81.1735 1151.88 81.0049C1151.66 80.8363 1151.37 80.752 1150.99 80.752C1150.63 80.752 1150.32 80.8431 1150.07 81.0254C1149.82 81.2031 1149.69 81.4287 1149.69 81.7021H1148.04C1148.04 81.0505 1148.31 80.5173 1148.86 80.1025C1149.41 79.6833 1150.1 79.4736 1150.95 79.4736C1151.86 79.4736 1152.57 79.6605 1153.09 80.0342C1153.6 80.4079 1153.85 80.9388 1153.85 81.627ZM1158.59 81.9551H1160.21C1160.82 81.9551 1161.35 82.0599 1161.8 82.2695C1162.25 82.4792 1162.59 82.7731 1162.82 83.1514C1163.06 83.5296 1163.18 83.9694 1163.18 84.4707C1163.18 85.2318 1162.91 85.8424 1162.37 86.3027C1161.84 86.763 1161.12 86.9954 1160.23 87H1156.93V79.6035H1158.59V81.9551ZM1166.07 87H1164.41V79.6035H1166.07V87ZM1158.59 83.2881V85.6738H1160.21C1160.61 85.6738 1160.93 85.5736 1161.16 85.373C1161.4 85.168 1161.52 84.8786 1161.52 84.5049C1161.52 84.1312 1161.4 83.8372 1161.17 83.623C1160.94 83.4043 1160.63 83.2926 1160.24 83.2881H1158.59ZM1169.59 87V79.6035H1172.59C1173.6 79.6035 1174.37 79.7812 1174.9 80.1367C1175.43 80.4876 1175.7 80.9935 1175.7 81.6543C1175.7 81.9961 1175.59 82.3037 1175.37 82.5771C1175.16 82.846 1174.85 83.0534 1174.44 83.1992C1174.92 83.2995 1175.3 83.5023 1175.59 83.8076C1175.87 84.113 1176.01 84.473 1176.01 84.8877C1176.01 85.5758 1175.75 86.0999 1175.24 86.46C1174.74 86.82 1174.01 87 1173.06 87H1169.59ZM1171.25 83.8486V85.6875H1173.07C1173.92 85.6875 1174.35 85.3822 1174.35 84.7715C1174.35 84.1562 1173.92 83.8486 1173.05 83.8486H1171.25ZM1171.25 82.6592H1172.62C1173.56 82.6592 1174.03 82.3812 1174.03 81.8252C1174.03 81.2419 1173.59 80.9411 1172.69 80.9229H1171.25V82.6592ZM1180.64 81.9551H1182.26C1182.87 81.9551 1183.4 82.0599 1183.85 82.2695C1184.3 82.4792 1184.64 82.7731 1184.88 83.1514C1185.11 83.5296 1185.23 83.9694 1185.23 84.4707C1185.23 85.2318 1184.96 85.8424 1184.42 86.3027C1183.89 86.763 1183.17 86.9954 1182.28 87H1178.98V79.6035H1180.64V81.9551ZM1188.12 87H1186.46V79.6035H1188.12V87ZM1180.64 83.2881V85.6738H1182.26C1182.66 85.6738 1182.98 85.5736 1183.21 85.373C1183.45 85.168 1183.57 84.8786 1183.57 84.5049C1183.57 84.1312 1183.45 83.8372 1183.22 83.623C1182.99 83.4043 1182.68 83.2926 1182.29 83.2881H1180.64Z" fill="#6E6E6E"/>
<path d="M151.528 90V64.8H166.504V67.752H154.66V75.492H162.472V78.444H154.66V87.012H167.296V90H151.528ZM183.879 90V78.876C183.879 77.22 183.519 76.008 182.799 75.24C182.103 74.448 181.143 74.052 179.919 74.052C177.087 74.052 175.671 75.636 175.671 78.804V90H172.539V71.604H175.671V73.476C176.799 71.94 178.383 71.172 180.423 71.172C182.583 71.172 184.215 71.832 185.319 73.152C186.447 74.448 187.011 76.536 187.011 79.416V90H183.879ZM197.792 90.432C195.2 90.432 193.904 88.968 193.904 86.04V74.34H190.916V71.604H193.904V65.52L197.036 64.008V71.604H201.572V74.34H197.036V84.996C197.036 85.812 197.168 86.436 197.432 86.868C197.696 87.3 198.2 87.516 198.944 87.516C199.76 87.516 200.672 87.192 201.68 86.544L201.32 89.604C200.264 90.156 199.088 90.432 197.792 90.432ZM206.181 90V64.8H223.065V69.408H211.041V74.7H218.673V79.308H211.041V90H206.181ZM223.79 90V71.604H228.47V73.224C229.118 71.856 230.258 71.172 231.89 71.172C233.258 71.172 234.506 71.64 235.634 72.576L234.986 76.86C233.978 76.14 232.862 75.78 231.638 75.78C229.526 75.78 228.47 77.1 228.47 79.74V90H223.79ZM241.072 69.444C240.328 69.444 239.68 69.18 239.128 68.652C238.6 68.1 238.336 67.452 238.336 66.708C238.336 65.964 238.6 65.328 239.128 64.8C239.656 64.272 240.304 64.008 241.072 64.008C241.84 64.008 242.488 64.272 243.016 64.8C243.544 65.304 243.808 65.94 243.808 66.708C243.808 67.476 243.544 68.124 243.016 68.652C242.488 69.18 241.84 69.444 241.072 69.444ZM238.732 90V71.604H243.412V90H238.732ZM256.56 90.432C253.896 90.432 251.796 89.58 250.26 87.876C248.724 86.172 247.956 83.808 247.956 80.784C247.956 77.832 248.724 75.492 250.26 73.764C251.82 72.036 253.92 71.172 256.56 71.172C258.96 71.172 260.916 71.916 262.428 73.404C263.94 74.868 264.696 77.016 264.696 79.848C264.696 81.024 264.648 81.948 264.552 82.62H252.564C252.66 83.772 253.08 84.684 253.824 85.356C254.592 86.004 255.504 86.328 256.56 86.328C258.192 86.328 259.512 85.692 260.52 84.42L263.4 87.336C261.696 89.4 259.416 90.432 256.56 90.432ZM252.6 78.66H260.124C259.98 77.604 259.584 76.776 258.936 76.176C258.312 75.576 257.52 75.276 256.56 75.276C254.208 75.276 252.888 76.404 252.6 78.66ZM280.377 90V79.92C280.377 78.432 280.113 77.352 279.585 76.68C279.081 76.008 278.277 75.672 277.173 75.672C274.845 75.672 273.681 77.064 273.681 79.848V90H269.001V71.604H273.681V73.332C274.857 71.892 276.501 71.172 278.613 71.172C280.437 71.172 281.961 71.748 283.185 72.9C284.433 74.028 285.057 75.864 285.057 78.408V90H280.377ZM296.966 90.432C294.614 90.432 292.754 89.592 291.386 87.912C290.042 86.232 289.37 83.856 289.37 80.784C289.37 77.856 290.078 75.528 291.494 73.8C292.934 72.048 294.77 71.172 297.002 71.172C298.682 71.172 299.99 71.76 300.926 72.936V66.132L305.606 64.008V90H300.926V88.668C300.134 89.844 298.814 90.432 296.966 90.432ZM297.722 85.932C299.162 85.932 300.23 85.44 300.926 84.456V77.184C300.182 76.176 299.114 75.672 297.722 75.672C296.546 75.672 295.634 76.116 294.986 77.004C294.362 77.868 294.05 79.128 294.05 80.784C294.05 82.392 294.362 83.652 294.986 84.564C295.634 85.476 296.546 85.932 297.722 85.932Z" fill="#13226F"/>
<path d="M472.044 237H469.328V226.418H466.182L466.041 227.596C465.678 230.59 465.355 232.69 465.074 233.897C464.799 235.099 464.397 235.945 463.87 236.438C463.349 236.93 462.625 237.176 461.699 237.176C461.207 237.176 460.773 237.111 460.398 236.982V234.75C460.738 234.867 461.058 234.926 461.356 234.926C461.667 234.926 461.913 234.785 462.095 234.504C462.276 234.217 462.446 233.689 462.604 232.922C462.769 232.148 462.982 230.886 463.246 229.134C463.516 227.376 463.744 225.715 463.932 224.15H472.044V237ZM477.669 227.174V231.059C477.669 231.469 477.602 232.471 477.467 234.064L482.002 227.174H485.228V237H482.635V233.08C482.635 232.383 482.693 231.398 482.811 230.127L478.293 237H475.076V227.174H477.669ZM490.404 227.174V230.769C490.404 231.624 490.8 232.052 491.591 232.052C492.106 232.052 492.584 231.993 493.023 231.876C493.469 231.759 493.917 231.606 494.368 231.419V227.174H497.049V237H494.368V233.098C493.747 233.426 493.17 233.657 492.637 233.792C492.104 233.927 491.588 233.994 491.09 233.994C490.018 233.994 489.188 233.722 488.603 233.177C488.017 232.626 487.724 231.844 487.724 230.83V227.174H490.404ZM502.542 227.174V230.953H506.286V227.174H508.967V237H506.286V232.948H502.542V237H499.861V227.174H502.542ZM514.46 230.971H515.752C517.252 230.971 518.362 231.211 519.083 231.691C519.804 232.172 520.164 232.898 520.164 233.871C520.164 234.908 519.804 235.69 519.083 236.218C518.362 236.739 517.284 237 515.849 237H511.779V227.174H514.46V230.971ZM517.483 233.906C517.483 233.525 517.331 233.25 517.026 233.08C516.722 232.91 516.268 232.825 515.664 232.825H514.46V235.146H515.699C516.889 235.146 517.483 234.732 517.483 233.906ZM524.269 237H521.588V227.174H524.269V237ZM529.683 227.174V231.059C529.683 231.469 529.615 232.471 529.48 234.064L534.016 227.174H537.241V237H534.648V233.08C534.648 232.383 534.707 231.398 534.824 230.127L530.307 237H527.09V227.174H529.683ZM536.45 222.946C536.339 224.042 535.926 224.842 535.211 225.346C534.496 225.844 533.465 226.093 532.117 226.093C530.729 226.093 529.7 225.853 529.032 225.372C528.37 224.892 527.998 224.083 527.916 222.946H530.315C530.356 223.55 530.506 223.975 530.764 224.221C531.027 224.461 531.496 224.581 532.17 224.581C532.762 224.581 533.201 224.449 533.488 224.186C533.781 223.916 533.96 223.503 534.024 222.946H536.45ZM550.829 227.174H553.782L549.889 231.885L554.125 237H551.084L547.067 232.017V237H544.387V227.174H547.067V231.946L550.829 227.174ZM561.771 237L561.253 235.664H561.183C560.731 236.232 560.266 236.628 559.785 236.851C559.311 237.067 558.689 237.176 557.922 237.176C556.979 237.176 556.234 236.906 555.689 236.367C555.15 235.828 554.881 235.061 554.881 234.064C554.881 233.021 555.244 232.254 555.971 231.762C556.703 231.264 557.805 230.988 559.275 230.936L560.98 230.883V230.452C560.98 229.456 560.471 228.958 559.451 228.958C558.666 228.958 557.743 229.195 556.683 229.67L555.795 227.859C556.926 227.268 558.18 226.972 559.557 226.972C560.875 226.972 561.886 227.259 562.589 227.833C563.292 228.407 563.644 229.28 563.644 230.452V237H561.771ZM560.98 232.447L559.943 232.482C559.164 232.506 558.584 232.646 558.203 232.904C557.822 233.162 557.632 233.555 557.632 234.082C557.632 234.838 558.065 235.216 558.933 235.216C559.554 235.216 560.049 235.037 560.418 234.68C560.793 234.322 560.98 233.848 560.98 233.256V232.447ZM565.814 231.111C565.814 228.855 566.242 227.145 567.098 225.979C567.959 224.807 569.301 224.065 571.123 223.755C571.762 223.644 572.403 223.553 573.048 223.482C573.698 223.406 574.378 223.321 575.087 223.228L575.395 225.574C573.906 225.744 572.77 225.882 571.984 225.987C571.205 226.093 570.631 226.21 570.262 226.339C569.893 226.462 569.588 226.641 569.348 226.875C569.113 227.109 568.932 227.42 568.803 227.807C568.674 228.188 568.589 228.697 568.548 229.336H568.68C568.99 228.855 569.4 228.486 569.91 228.229C570.42 227.971 570.968 227.842 571.554 227.842C572.767 227.842 573.71 228.214 574.384 228.958C575.058 229.696 575.395 230.757 575.395 232.14C575.395 233.733 574.967 234.973 574.111 235.857C573.262 236.736 572.087 237.176 570.587 237.176C569.087 237.176 567.915 236.64 567.071 235.567C566.233 234.489 565.814 233.004 565.814 231.111ZM570.745 235.005C572.017 235.005 572.652 234.129 572.652 232.377C572.652 230.672 572.078 229.819 570.93 229.819C570.613 229.819 570.297 229.893 569.98 230.039C569.67 230.186 569.383 230.379 569.119 230.619C568.861 230.854 568.671 231.091 568.548 231.331C568.548 232.521 568.738 233.432 569.119 234.064C569.5 234.691 570.042 235.005 570.745 235.005ZM580.202 227.174V231.059C580.202 231.469 580.135 232.471 580 234.064L584.535 227.174H587.761V237H585.168V233.08C585.168 232.383 585.227 231.398 585.344 230.127L580.826 237H577.609V227.174H580.202ZM593.263 227.174V230.953H597.007V227.174H599.688V237H597.007V232.948H593.263V237H590.582V227.174H593.263ZM606.569 228.896C606.001 228.896 605.556 229.078 605.233 229.441C604.911 229.799 604.727 230.309 604.68 230.971H608.441C608.43 230.309 608.257 229.799 607.923 229.441C607.589 229.078 607.138 228.896 606.569 228.896ZM606.947 237.176C605.365 237.176 604.129 236.739 603.238 235.866C602.348 234.993 601.902 233.757 601.902 232.157C601.902 230.511 602.312 229.239 603.133 228.343C603.959 227.44 605.099 226.989 606.552 226.989C607.94 226.989 609.021 227.385 609.795 228.176C610.568 228.967 610.955 230.06 610.955 231.454V232.755H604.618C604.647 233.517 604.873 234.111 605.295 234.539C605.717 234.967 606.309 235.181 607.07 235.181C607.662 235.181 608.222 235.119 608.749 234.996C609.276 234.873 609.827 234.677 610.401 234.407V236.481C609.933 236.716 609.432 236.889 608.898 237C608.365 237.117 607.715 237.176 606.947 237.176ZM621.265 227.174V229.187H618.048V237H615.367V229.187H612.142V227.174H621.265ZM630.019 227.174V231.059C630.019 231.469 629.951 232.471 629.816 234.064L634.352 227.174H637.577V237H634.984V233.08C634.984 232.383 635.043 231.398 635.16 230.127L630.643 237H627.426V227.174H630.019ZM643.079 227.174V230.953H646.823V227.174H649.504V237H646.823V232.948H643.079V237H640.398V227.174H643.079ZM658.469 235.04V229.187H656.456C656.31 230.276 656.107 231.311 655.85 232.289C655.598 233.268 655.246 234.185 654.795 235.04H658.469ZM662.591 240.524H660.183V237H653.573V240.524H651.165V235.04H651.991C652.554 234.167 653.025 233.065 653.406 231.735C653.787 230.405 654.054 228.885 654.206 227.174H661.149V235.04H662.591V240.524ZM666.862 227.174V231.059C666.862 231.469 666.795 232.471 666.66 234.064L671.195 227.174H674.421V237H671.828V233.08C671.828 232.383 671.887 231.398 672.004 230.127L667.486 237H664.27V227.174H666.862ZM686.312 229.749C686.312 230.276 686.146 230.728 685.812 231.103C685.483 231.472 684.997 231.709 684.353 231.814V231.885C685.05 231.967 685.601 232.207 686.005 232.605C686.415 232.998 686.62 233.484 686.62 234.064C686.62 235.02 686.245 235.749 685.495 236.253C684.745 236.751 683.673 237 682.278 237H677.242V227.174H682.278C683.626 227.174 684.634 227.394 685.302 227.833C685.976 228.267 686.312 228.905 686.312 229.749ZM683.843 233.924C683.843 233.537 683.693 233.259 683.395 233.089C683.096 232.913 682.647 232.825 682.05 232.825H679.923V235.146H682.103C682.671 235.146 683.102 235.04 683.395 234.829C683.693 234.612 683.843 234.311 683.843 233.924ZM683.597 229.96C683.597 229.362 683.122 229.063 682.173 229.063H679.923V231.006H681.865C682.434 231.006 682.864 230.924 683.157 230.76C683.45 230.596 683.597 230.329 683.597 229.96ZM691.349 227.174V231.059C691.349 231.469 691.281 232.471 691.146 234.064L695.682 227.174H698.907V237H696.314V233.08C696.314 232.383 696.373 231.398 696.49 230.127L691.973 237H688.756V227.174H691.349ZM707.881 235.04V229.187H705.868C705.722 230.276 705.52 231.311 705.262 232.289C705.01 233.268 704.658 234.185 704.207 235.04H707.881ZM712.003 240.524H709.595V237H702.985V240.524H700.577V235.04H701.403C701.966 234.167 702.438 233.065 702.818 231.735C703.199 230.405 703.466 228.885 703.618 227.174H710.562V235.04H712.003V240.524ZM712.275 227.174H715.211L717.065 232.702C717.224 233.183 717.332 233.751 717.391 234.407H717.443C717.508 233.804 717.634 233.235 717.821 232.702L719.641 227.174H722.515L718.357 238.257C717.977 239.282 717.432 240.05 716.723 240.56C716.02 241.069 715.196 241.324 714.253 241.324C713.79 241.324 713.336 241.274 712.891 241.175V239.048C713.213 239.124 713.564 239.162 713.945 239.162C714.42 239.162 714.833 239.016 715.185 238.723C715.542 238.436 715.82 237.999 716.02 237.413L716.178 236.93L712.275 227.174ZM730.17 237L729.651 235.664H729.581C729.13 236.232 728.664 236.628 728.184 236.851C727.709 237.067 727.088 237.176 726.32 237.176C725.377 237.176 724.633 236.906 724.088 236.367C723.549 235.828 723.279 235.061 723.279 234.064C723.279 233.021 723.643 232.254 724.369 231.762C725.102 231.264 726.203 230.988 727.674 230.936L729.379 230.883V230.452C729.379 229.456 728.869 228.958 727.85 228.958C727.064 228.958 726.142 229.195 725.081 229.67L724.193 227.859C725.324 227.268 726.578 226.972 727.955 226.972C729.273 226.972 730.284 227.259 730.987 227.833C731.69 228.407 732.042 229.28 732.042 230.452V237H730.17ZM729.379 232.447L728.342 232.482C727.562 232.506 726.982 232.646 726.602 232.904C726.221 233.162 726.03 233.555 726.03 234.082C726.03 234.838 726.464 235.216 727.331 235.216C727.952 235.216 728.447 235.037 728.816 234.68C729.191 234.322 729.379 233.848 729.379 233.256V232.447ZM743.608 237H740.928V229.187H738.458C738.271 231.384 738.042 233.024 737.772 234.108C737.503 235.187 737.143 235.969 736.691 236.455C736.246 236.936 735.66 237.176 734.934 237.176C734.312 237.176 733.803 237.082 733.404 236.895V234.75C733.691 234.867 733.979 234.926 734.266 234.926C734.6 234.926 734.878 234.686 735.101 234.205C735.329 233.725 735.531 232.925 735.707 231.806C735.889 230.681 736.044 229.137 736.173 227.174H743.608V237ZM749.11 230.971H751C752.512 230.971 753.631 231.211 754.357 231.691C755.084 232.172 755.447 232.898 755.447 233.871C755.447 235.957 754 237 751.105 237H746.43V227.174H749.11V230.971ZM752.767 233.906C752.767 233.525 752.614 233.25 752.31 233.08C752.005 232.91 751.551 232.825 750.947 232.825H749.11V235.146H750.982C752.172 235.146 752.767 234.732 752.767 233.906ZM760.167 227.174V230.953H763.911V227.174H766.592V237H763.911V232.948H760.167V237H757.486V227.174H760.167ZM771.54 232.069C771.54 233.042 771.698 233.777 772.015 234.275C772.337 234.773 772.858 235.022 773.579 235.022C774.294 235.022 774.807 234.776 775.117 234.284C775.434 233.786 775.592 233.048 775.592 232.069C775.592 231.097 775.434 230.367 775.117 229.881C774.801 229.395 774.282 229.151 773.562 229.151C772.847 229.151 772.331 229.395 772.015 229.881C771.698 230.361 771.54 231.091 771.54 232.069ZM778.334 232.069C778.334 233.669 777.912 234.92 777.068 235.822C776.225 236.725 775.05 237.176 773.544 237.176C772.601 237.176 771.769 236.971 771.048 236.561C770.327 236.145 769.773 235.55 769.387 234.776C769 234.003 768.807 233.101 768.807 232.069C768.807 230.464 769.226 229.216 770.063 228.325C770.901 227.435 772.079 226.989 773.597 226.989C774.54 226.989 775.372 227.194 776.093 227.604C776.813 228.015 777.367 228.604 777.754 229.371C778.141 230.139 778.334 231.038 778.334 232.069ZM787.334 227.174V229.187H783.229V237H780.549V227.174H787.334ZM791.21 232.069C791.21 233.042 791.368 233.777 791.685 234.275C792.007 234.773 792.528 235.022 793.249 235.022C793.964 235.022 794.477 234.776 794.787 234.284C795.104 233.786 795.262 233.048 795.262 232.069C795.262 231.097 795.104 230.367 794.787 229.881C794.471 229.395 793.952 229.151 793.231 229.151C792.517 229.151 792.001 229.395 791.685 229.881C791.368 230.361 791.21 231.091 791.21 232.069ZM798.004 232.069C798.004 233.669 797.582 234.92 796.738 235.822C795.895 236.725 794.72 237.176 793.214 237.176C792.271 237.176 791.438 236.971 790.718 236.561C789.997 236.145 789.443 235.55 789.057 234.776C788.67 234.003 788.477 233.101 788.477 232.069C788.477 230.464 788.896 229.216 789.733 228.325C790.571 227.435 791.749 226.989 793.267 226.989C794.21 226.989 795.042 227.194 795.763 227.604C796.483 228.015 797.037 228.604 797.424 229.371C797.811 230.139 798.004 231.038 798.004 232.069ZM813.473 227.174V237H810.783V229.187H807.224V237H804.543V227.174H813.473ZM821.682 237.176C820.527 237.176 819.622 236.757 818.966 235.919H818.825C818.919 236.739 818.966 237.214 818.966 237.343V241.324H816.285V227.174H818.465L818.843 228.448H818.966C819.593 227.476 820.521 226.989 821.752 226.989C822.912 226.989 823.82 227.438 824.477 228.334C825.133 229.23 825.461 230.476 825.461 232.069C825.461 233.118 825.306 234.029 824.995 234.803C824.69 235.576 824.254 236.165 823.686 236.569C823.117 236.974 822.449 237.176 821.682 237.176ZM820.891 229.134C820.229 229.134 819.745 229.339 819.44 229.749C819.136 230.153 818.978 230.824 818.966 231.762V232.052C818.966 233.106 819.121 233.862 819.432 234.319C819.748 234.776 820.246 235.005 820.926 235.005C822.127 235.005 822.728 234.015 822.728 232.034C822.728 231.067 822.578 230.344 822.279 229.863C821.986 229.377 821.523 229.134 820.891 229.134ZM831.745 228.896C831.177 228.896 830.731 229.078 830.409 229.441C830.087 229.799 829.902 230.309 829.855 230.971H833.617C833.605 230.309 833.433 229.799 833.099 229.441C832.765 229.078 832.313 228.896 831.745 228.896ZM832.123 237.176C830.541 237.176 829.305 236.739 828.414 235.866C827.523 234.993 827.078 233.757 827.078 232.157C827.078 230.511 827.488 229.239 828.309 228.343C829.135 227.44 830.274 226.989 831.728 226.989C833.116 226.989 834.197 227.385 834.971 228.176C835.744 228.967 836.131 230.06 836.131 231.454V232.755H829.794C829.823 233.517 830.049 234.111 830.471 234.539C830.893 234.967 831.484 235.181 832.246 235.181C832.838 235.181 833.397 235.119 833.925 234.996C834.452 234.873 835.003 234.677 835.577 234.407V236.481C835.108 236.716 834.607 236.889 834.074 237C833.541 237.117 832.891 237.176 832.123 237.176ZM844.463 235.04V229.187H842.45C842.304 230.276 842.102 231.311 841.844 232.289C841.592 233.268 841.24 234.185 840.789 235.04H844.463ZM848.585 240.524H846.177V237H839.567V240.524H837.159V235.04H837.985C838.548 234.167 839.02 233.065 839.4 231.735C839.781 230.405 840.048 228.885 840.2 227.174H847.144V235.04H848.585V240.524ZM859.193 227.174V237H856.504V229.187H852.944V237H850.264V227.174H859.193ZM867.402 237.176C866.248 237.176 865.343 236.757 864.687 235.919H864.546C864.64 236.739 864.687 237.214 864.687 237.343V241.324H862.006V227.174H864.186L864.563 228.448H864.687C865.313 227.476 866.242 226.989 867.473 226.989C868.633 226.989 869.541 227.438 870.197 228.334C870.854 229.23 871.182 230.476 871.182 232.069C871.182 233.118 871.026 234.029 870.716 234.803C870.411 235.576 869.975 236.165 869.406 236.569C868.838 236.974 868.17 237.176 867.402 237.176ZM866.611 229.134C865.949 229.134 865.466 229.339 865.161 229.749C864.856 230.153 864.698 230.824 864.687 231.762V232.052C864.687 233.106 864.842 233.862 865.152 234.319C865.469 234.776 865.967 235.005 866.646 235.005C867.848 235.005 868.448 234.015 868.448 232.034C868.448 231.067 868.299 230.344 868 229.863C867.707 229.377 867.244 229.134 866.611 229.134ZM875.989 227.174V231.059C875.989 231.469 875.922 232.471 875.787 234.064L880.322 227.174H883.548V237H880.955V233.08C880.955 232.383 881.014 231.398 881.131 230.127L876.613 237H873.396V227.174H875.989ZM889.05 227.174V230.953H892.794V227.174H895.475V237H892.794V232.948H889.05V237H886.369V227.174H889.05ZM900.88 227.174V231.059C900.88 231.469 900.812 232.471 900.678 234.064L905.213 227.174H908.438V237H905.846V233.08C905.846 232.383 905.904 231.398 906.021 230.127L901.504 237H898.287V227.174H900.88ZM923.644 237H921.139V229.257L920.998 229.802C920.682 231.038 920.397 231.973 920.146 232.605L918.405 237H916.498L914.731 232.57C914.479 231.926 914.21 231.021 913.923 229.854L913.756 229.257V237H911.26V227.174H914.951L916.639 231.366C916.814 231.817 916.976 232.336 917.122 232.922C917.274 233.508 917.377 234.009 917.43 234.425C917.623 233.546 917.772 232.916 917.878 232.535C917.989 232.148 918.109 231.794 918.238 231.472C918.367 231.149 918.95 229.717 919.987 227.174H923.644V237ZM932.705 237L932.187 235.664H932.116C931.665 236.232 931.199 236.628 930.719 236.851C930.244 237.067 929.623 237.176 928.855 237.176C927.912 237.176 927.168 236.906 926.623 236.367C926.084 235.828 925.814 235.061 925.814 234.064C925.814 233.021 926.178 232.254 926.904 231.762C927.637 231.264 928.738 230.988 930.209 230.936L931.914 230.883V230.452C931.914 229.456 931.404 228.958 930.385 228.958C929.6 228.958 928.677 229.195 927.616 229.67L926.729 227.859C927.859 227.268 929.113 226.972 930.49 226.972C931.809 226.972 932.819 227.259 933.522 227.833C934.226 228.407 934.577 229.28 934.577 230.452V237H932.705ZM931.914 232.447L930.877 232.482C930.098 232.506 929.518 232.646 929.137 232.904C928.756 233.162 928.565 233.555 928.565 234.082C928.565 234.838 928.999 235.216 929.866 235.216C930.487 235.216 930.982 235.037 931.352 234.68C931.727 234.322 931.914 233.848 931.914 233.256V232.447ZM945.476 227.174V229.187H942.259V237H939.578V229.187H936.353V227.174H945.476ZM951.294 228.896C950.726 228.896 950.28 229.078 949.958 229.441C949.636 229.799 949.451 230.309 949.404 230.971H953.166C953.154 230.309 952.981 229.799 952.647 229.441C952.313 229.078 951.862 228.896 951.294 228.896ZM951.672 237.176C950.09 237.176 948.854 236.739 947.963 235.866C947.072 234.993 946.627 233.757 946.627 232.157C946.627 230.511 947.037 229.239 947.857 228.343C948.684 227.44 949.823 226.989 951.276 226.989C952.665 226.989 953.746 227.385 954.52 228.176C955.293 228.967 955.68 230.06 955.68 231.454V232.755H949.343C949.372 233.517 949.598 234.111 950.02 234.539C950.441 234.967 951.033 235.181 951.795 235.181C952.387 235.181 952.946 235.119 953.474 234.996C954.001 234.873 954.552 234.677 955.126 234.407V236.481C954.657 236.716 954.156 236.889 953.623 237C953.09 237.117 952.439 237.176 951.672 237.176ZM966.657 237H963.977V229.187H961.507C961.319 231.384 961.091 233.024 960.821 234.108C960.552 235.187 960.191 235.969 959.74 236.455C959.295 236.936 958.709 237.176 957.982 237.176C957.361 237.176 956.852 237.082 956.453 236.895V234.75C956.74 234.867 957.027 234.926 957.314 234.926C957.648 234.926 957.927 234.686 958.149 234.205C958.378 233.725 958.58 232.925 958.756 231.806C958.938 230.681 959.093 229.137 959.222 227.174H966.657V237ZM970.973 237H968.072L970.718 233.115C970.085 232.852 969.604 232.471 969.276 231.973C968.954 231.475 968.793 230.889 968.793 230.215C968.793 229.266 969.147 228.521 969.856 227.982C970.571 227.443 971.544 227.174 972.774 227.174H977.345V237H974.664V233.344H973.188L970.973 237ZM971.421 230.232C971.421 230.643 971.582 230.965 971.904 231.199C972.227 231.428 972.648 231.542 973.17 231.542H974.664V229.063H972.827C972.388 229.063 972.042 229.172 971.79 229.389C971.544 229.6 971.421 229.881 971.421 230.232ZM628.428 267.238C628.428 268.504 628.047 269.447 627.285 270.068C626.523 270.689 625.357 271 623.787 271H620.025V258.15H627.654V259.574H621.643V263.582H623.55C625.19 263.582 626.412 263.872 627.215 264.452C628.023 265.032 628.428 265.961 628.428 267.238ZM621.643 269.611H623.62C624.722 269.611 625.519 269.427 626.011 269.058C626.509 268.683 626.758 268.076 626.758 267.238C626.758 266.418 626.5 265.838 625.984 265.498C625.469 265.158 624.593 264.988 623.356 264.988H621.643V269.611ZM636.839 271L636.531 269.629H636.461C635.98 270.232 635.5 270.643 635.02 270.859C634.545 271.07 633.944 271.176 633.218 271.176C632.269 271.176 631.524 270.927 630.985 270.429C630.446 269.931 630.177 269.228 630.177 268.319C630.177 266.362 631.721 265.337 634.809 265.243L636.443 265.182V264.61C636.443 263.878 636.285 263.339 635.969 262.993C635.652 262.642 635.146 262.466 634.448 262.466C633.938 262.466 633.455 262.542 632.998 262.694C632.547 262.847 632.122 263.017 631.724 263.204L631.24 262.018C631.727 261.76 632.257 261.558 632.831 261.411C633.405 261.265 633.974 261.191 634.536 261.191C635.702 261.191 636.569 261.449 637.138 261.965C637.706 262.48 637.99 263.301 637.99 264.426V271H636.839ZM633.578 269.901C634.463 269.901 635.157 269.664 635.661 269.189C636.171 268.709 636.426 268.029 636.426 267.15V266.28L635.002 266.342C633.895 266.383 633.086 266.559 632.576 266.869C632.072 267.18 631.82 267.669 631.82 268.337C631.82 268.841 631.973 269.228 632.277 269.497C632.588 269.767 633.021 269.901 633.578 269.901ZM642.569 261.35V265.366H647.808V261.35H649.39V271H647.808V266.702H642.569V271H640.987V261.35H642.569ZM658.17 261.35H659.901L655.779 265.999L660.244 271H658.407L654.048 266.104V271H652.466V261.35H654.048V266.034L658.17 261.35ZM661.49 273.268C661.706 273.076 661.922 272.8 662.138 272.44C662.354 272.08 662.474 271.696 662.498 271.288C662.138 271.264 661.838 271.144 661.598 270.928C661.358 270.7 661.238 270.418 661.238 270.082C661.238 269.71 661.352 269.404 661.58 269.164C661.82 268.924 662.108 268.804 662.444 268.804C662.828 268.804 663.152 268.942 663.416 269.218C663.68 269.482 663.812 269.872 663.812 270.388C663.812 271.048 663.644 271.654 663.308 272.206C662.972 272.77 662.54 273.214 662.012 273.538L661.49 273.268ZM680.318 271H678.701V265.006H672.109V271H670.492V258.15H672.109V263.582H678.701V258.15H680.318V271ZM689.573 271L689.266 269.629H689.195C688.715 270.232 688.234 270.643 687.754 270.859C687.279 271.07 686.679 271.176 685.952 271.176C685.003 271.176 684.259 270.927 683.72 270.429C683.181 269.931 682.911 269.228 682.911 268.319C682.911 266.362 684.455 265.337 687.543 265.243L689.178 265.182V264.61C689.178 263.878 689.02 263.339 688.703 262.993C688.387 262.642 687.88 262.466 687.183 262.466C686.673 262.466 686.189 262.542 685.732 262.694C685.281 262.847 684.856 263.017 684.458 263.204L683.975 262.018C684.461 261.76 684.991 261.558 685.565 261.411C686.14 261.265 686.708 261.191 687.271 261.191C688.437 261.191 689.304 261.449 689.872 261.965C690.44 262.48 690.725 263.301 690.725 264.426V271H689.573ZM686.312 269.901C687.197 269.901 687.892 269.664 688.396 269.189C688.905 268.709 689.16 268.029 689.16 267.15V266.28L687.736 266.342C686.629 266.383 685.82 266.559 685.311 266.869C684.807 267.18 684.555 267.669 684.555 268.337C684.555 268.841 684.707 269.228 685.012 269.497C685.322 269.767 685.756 269.901 686.312 269.901ZM701.069 271H699.461V262.668H696.622C696.458 264.777 696.235 266.436 695.954 267.643C695.679 268.844 695.315 269.726 694.864 270.288C694.419 270.845 693.848 271.123 693.15 271.123C692.77 271.123 692.491 271.082 692.315 271V269.813C692.438 269.86 692.603 269.884 692.808 269.884C693.452 269.884 693.965 269.204 694.346 267.845C694.732 266.485 695.034 264.32 695.251 261.35H701.069V271ZM712.513 266.157C712.513 267.733 712.114 268.964 711.317 269.849C710.521 270.733 709.419 271.176 708.013 271.176C707.14 271.176 706.366 270.974 705.692 270.569C705.019 270.159 704.5 269.573 704.137 268.812C703.773 268.05 703.592 267.165 703.592 266.157C703.592 264.587 703.984 263.365 704.77 262.492C705.555 261.613 706.656 261.174 708.074 261.174C709.434 261.174 710.512 261.622 711.309 262.519C712.111 263.409 712.513 264.622 712.513 266.157ZM705.227 266.157C705.227 267.37 705.464 268.293 705.938 268.926C706.419 269.553 707.125 269.866 708.057 269.866C708.977 269.866 709.677 269.553 710.157 268.926C710.638 268.293 710.878 267.37 710.878 266.157C710.878 264.944 710.635 264.033 710.148 263.424C709.668 262.809 708.962 262.501 708.03 262.501C706.161 262.501 705.227 263.72 705.227 266.157ZM720.915 262.686H716.608V271H715.026V261.35H720.915V262.686ZM731.128 266.157C731.128 267.733 730.729 268.964 729.933 269.849C729.136 270.733 728.034 271.176 726.628 271.176C725.755 271.176 724.981 270.974 724.308 270.569C723.634 270.159 723.115 269.573 722.752 268.812C722.389 268.05 722.207 267.165 722.207 266.157C722.207 264.587 722.6 263.365 723.385 262.492C724.17 261.613 725.271 261.174 726.689 261.174C728.049 261.174 729.127 261.622 729.924 262.519C730.727 263.409 731.128 264.622 731.128 266.157ZM723.842 266.157C723.842 267.37 724.079 268.293 724.554 268.926C725.034 269.553 725.74 269.866 726.672 269.866C727.592 269.866 728.292 269.553 728.772 268.926C729.253 268.293 729.493 267.37 729.493 266.157C729.493 264.944 729.25 264.033 728.764 263.424C728.283 262.809 727.577 262.501 726.646 262.501C724.776 262.501 723.842 263.72 723.842 266.157ZM741.578 263.784C741.578 264.405 741.402 264.88 741.051 265.208C740.699 265.53 740.198 265.75 739.548 265.867V265.946C740.362 266.058 740.954 266.301 741.323 266.676C741.698 267.045 741.886 267.543 741.886 268.17C741.886 269.084 741.549 269.784 740.875 270.271C740.207 270.757 739.243 271 737.983 271H733.642V261.35H737.966C740.374 261.35 741.578 262.161 741.578 263.784ZM740.304 268.082C740.304 267.543 740.093 267.165 739.671 266.948C739.249 266.731 738.631 266.623 737.816 266.623H735.224V269.726H737.852C739.486 269.726 740.304 269.178 740.304 268.082ZM740.031 263.925C740.031 263.474 739.855 263.151 739.504 262.958C739.158 262.765 738.634 262.668 737.931 262.668H735.224V265.313H737.641C738.502 265.313 739.114 265.208 739.478 264.997C739.847 264.78 740.031 264.423 740.031 263.925ZM749.972 271L749.664 269.629H749.594C749.113 270.232 748.633 270.643 748.152 270.859C747.678 271.07 747.077 271.176 746.351 271.176C745.401 271.176 744.657 270.927 744.118 270.429C743.579 269.931 743.31 269.228 743.31 268.319C743.31 266.362 744.854 265.337 747.941 265.243L749.576 265.182V264.61C749.576 263.878 749.418 263.339 749.102 262.993C748.785 262.642 748.278 262.466 747.581 262.466C747.071 262.466 746.588 262.542 746.131 262.694C745.68 262.847 745.255 263.017 744.856 263.204L744.373 262.018C744.859 261.76 745.39 261.558 745.964 261.411C746.538 261.265 747.106 261.191 747.669 261.191C748.835 261.191 749.702 261.449 750.271 261.965C750.839 262.48 751.123 263.301 751.123 264.426V271H749.972ZM746.711 269.901C747.596 269.901 748.29 269.664 748.794 269.189C749.304 268.709 749.559 268.029 749.559 267.15V266.28L748.135 266.342C747.027 266.383 746.219 266.559 745.709 266.869C745.205 267.18 744.953 267.669 744.953 268.337C744.953 268.841 745.105 269.228 745.41 269.497C745.721 269.767 746.154 269.901 746.711 269.901ZM754.718 271H752.881L755.632 266.948C754.894 266.761 754.334 266.43 753.953 265.955C753.572 265.48 753.382 264.895 753.382 264.197C753.382 263.307 753.684 262.609 754.287 262.105C754.891 261.602 755.729 261.35 756.801 261.35H761.125V271H759.543V267.168H757.196L754.718 271ZM754.911 264.215C754.911 265.305 755.696 265.85 757.267 265.85H759.543V262.668H756.968C756.294 262.668 755.781 262.8 755.43 263.063C755.084 263.327 754.911 263.711 754.911 264.215ZM763.689 273.268C763.905 273.076 764.121 272.8 764.337 272.44C764.553 272.08 764.673 271.696 764.697 271.288C764.337 271.264 764.037 271.144 763.797 270.928C763.557 270.7 763.437 270.418 763.437 270.082C763.437 269.71 763.551 269.404 763.779 269.164C764.019 268.924 764.307 268.804 764.643 268.804C765.027 268.804 765.351 268.942 765.615 269.218C765.879 269.482 766.011 269.872 766.011 270.388C766.011 271.048 765.843 271.654 765.507 272.206C765.171 272.77 764.739 273.214 764.211 273.538L763.689 273.268ZM777.367 257.966H778.967V259.548H779.564C780.584 259.548 781.463 259.753 782.201 260.163C782.945 260.567 783.511 261.133 783.897 261.859C784.284 262.586 784.478 263.412 784.478 264.338C784.478 265.305 784.261 266.166 783.827 266.922C783.394 267.678 782.793 268.246 782.025 268.627C781.258 269.008 780.353 269.198 779.31 269.198H778.967V271.176H777.367V269.198H776.989C775.946 269.198 775.044 269.005 774.282 268.618C773.521 268.226 772.926 267.651 772.498 266.896C772.07 266.14 771.856 265.287 771.856 264.338C771.856 263.43 772.056 262.612 772.454 261.886C772.853 261.153 773.424 260.582 774.168 260.172C774.912 259.756 775.788 259.548 776.796 259.548H777.367V257.966ZM778.967 267.871H779.187C780.341 267.871 781.237 267.558 781.876 266.931C782.521 266.298 782.843 265.428 782.843 264.32C782.843 263.266 782.544 262.437 781.946 261.833C781.354 261.224 780.525 260.919 779.459 260.919H778.967V267.871ZM777.367 260.919H776.884C775.823 260.919 774.994 261.227 774.396 261.842C773.799 262.451 773.5 263.277 773.5 264.32C773.5 265.428 773.819 266.298 774.458 266.931C775.097 267.558 776.002 267.871 777.174 267.871H777.367V260.919ZM792.678 259.39C791.295 259.39 790.208 259.853 789.417 260.778C788.626 261.704 788.23 262.97 788.23 264.575C788.23 266.233 788.614 267.514 789.382 268.416C790.149 269.312 791.242 269.761 792.66 269.761C793.574 269.761 794.603 269.591 795.745 269.251V270.657C795.2 270.856 794.676 270.991 794.172 271.062C793.668 271.138 793.088 271.176 792.432 271.176C790.539 271.176 789.08 270.602 788.055 269.453C787.035 268.299 786.525 266.667 786.525 264.558C786.525 263.233 786.769 262.073 787.255 261.077C787.747 260.081 788.459 259.313 789.391 258.774C790.328 258.235 791.43 257.966 792.695 257.966C794.055 257.966 795.238 258.218 796.246 258.722L795.596 260.093C794.57 259.624 793.598 259.39 792.678 259.39ZM806.143 261.156C806.143 261.988 805.876 262.671 805.343 263.204C804.81 263.731 804.062 264.068 803.102 264.215V264.285C804.191 264.432 805.015 264.769 805.571 265.296C806.134 265.823 806.415 266.512 806.415 267.361C806.415 268.562 805.961 269.5 805.053 270.174C804.145 270.842 802.87 271.176 801.229 271.176C799.688 271.176 798.44 270.944 797.485 270.481V269.005C798.065 269.28 798.687 269.491 799.349 269.638C800.017 269.778 800.638 269.849 801.212 269.849C802.372 269.849 803.245 269.635 803.831 269.207C804.423 268.779 804.719 268.164 804.719 267.361C804.719 266.594 804.388 266.014 803.726 265.621C803.063 265.223 802.076 265.023 800.764 265.023H798.927V263.67H800.667C801.938 263.67 802.888 263.459 803.515 263.037C804.147 262.609 804.464 262.035 804.464 261.314C804.464 260.693 804.229 260.204 803.761 259.847C803.298 259.483 802.671 259.302 801.88 259.302C801.212 259.302 800.608 259.381 800.069 259.539C799.536 259.697 798.95 259.984 798.312 260.4L797.538 259.302C798.774 258.411 800.228 257.966 801.897 257.966C803.216 257.966 804.253 258.253 805.009 258.827C805.765 259.401 806.143 260.178 806.143 261.156ZM818.957 271H817.34V265.006H810.748V271H809.131V258.15H810.748V263.582H817.34V258.15H818.957V271Z" fill="#515151"/>
<rect y="980" width="1440" height="120" fill="#10213D" fill-opacity="0.55"/>
<path d="M1137.29 1049.16C1136.7 1049.16 1136.18 1049.08 1135.73 1048.92V1047.56C1136.21 1047.78 1136.71 1047.88 1137.24 1047.88C1137.8 1047.88 1138.25 1047.75 1138.59 1047.49C1138.93 1047.23 1139.26 1046.76 1139.58 1046.07L1135.18 1037.58H1136.76L1140.02 1043.93C1140.15 1044.17 1140.27 1044.45 1140.36 1044.74H1140.42L1140.48 1044.55L1140.73 1043.91L1143.46 1037.58H1144.98L1141.34 1045.75C1140.9 1046.72 1140.51 1047.42 1140.16 1047.87C1139.8 1048.31 1139.4 1048.64 1138.94 1048.84C1138.48 1049.05 1137.93 1049.16 1137.29 1049.16ZM1149.62 1049.16C1148.39 1049.16 1147.43 1048.78 1146.74 1048.02C1146.05 1047.26 1145.71 1046.17 1145.71 1044.76C1145.71 1043.32 1146.06 1042.21 1146.75 1041.44C1147.45 1040.66 1148.44 1040.27 1149.73 1040.27C1150.14 1040.27 1150.55 1040.31 1150.96 1040.4C1151.37 1040.48 1151.71 1040.59 1151.98 1040.73L1151.55 1041.9C1150.82 1041.63 1150.21 1041.49 1149.7 1041.49C1148.83 1041.49 1148.19 1041.77 1147.78 1042.31C1147.37 1042.85 1147.16 1043.66 1147.16 1044.74C1147.16 1045.78 1147.37 1046.57 1147.78 1047.12C1148.19 1047.67 1148.8 1047.95 1149.61 1047.95C1150.36 1047.95 1151.11 1047.78 1151.84 1047.45V1048.7C1151.24 1049 1150.51 1049.16 1149.62 1049.16ZM1160.41 1049H1158.98V1041.59H1156.45C1156.31 1043.47 1156.11 1044.94 1155.86 1046.02C1155.61 1047.08 1155.29 1047.87 1154.89 1048.37C1154.49 1048.86 1153.99 1049.11 1153.37 1049.11C1153.03 1049.11 1152.78 1049.07 1152.62 1049V1047.95C1152.73 1047.99 1152.88 1048.01 1153.06 1048.01C1153.64 1048.01 1154.09 1047.4 1154.43 1046.2C1154.77 1044.99 1155.04 1043.06 1155.23 1040.42H1160.41V1049ZM1170.58 1044.7C1170.58 1046.1 1170.22 1047.19 1169.52 1047.98C1168.81 1048.76 1167.83 1049.16 1166.58 1049.16C1165.8 1049.16 1165.11 1048.98 1164.52 1048.62C1163.92 1048.25 1163.46 1047.73 1163.13 1047.05C1162.81 1046.38 1162.65 1045.59 1162.65 1044.7C1162.65 1043.3 1163 1042.21 1163.7 1041.44C1164.39 1040.66 1165.37 1040.27 1166.63 1040.27C1167.84 1040.27 1168.8 1040.66 1169.51 1041.46C1170.22 1042.25 1170.58 1043.33 1170.58 1044.7ZM1164.1 1044.7C1164.1 1045.77 1164.31 1046.59 1164.73 1047.16C1165.16 1047.71 1165.79 1047.99 1166.62 1047.99C1167.43 1047.99 1168.06 1047.71 1168.48 1047.16C1168.91 1046.59 1169.12 1045.77 1169.12 1044.7C1169.12 1043.62 1168.91 1042.81 1168.48 1042.27C1168.05 1041.72 1167.42 1041.45 1166.59 1041.45C1164.93 1041.45 1164.1 1042.53 1164.1 1044.7ZM1179.87 1042.59C1179.87 1043.14 1179.71 1043.56 1179.4 1043.85C1179.09 1044.14 1178.64 1044.33 1178.06 1044.44V1044.51C1178.79 1044.61 1179.31 1044.82 1179.64 1045.16C1179.97 1045.48 1180.14 1045.93 1180.14 1046.48C1180.14 1047.3 1179.84 1047.92 1179.24 1048.35C1178.65 1048.78 1177.79 1049 1176.67 1049H1172.81V1040.42H1176.66C1178.8 1040.42 1179.87 1041.14 1179.87 1042.59ZM1178.73 1046.41C1178.73 1045.93 1178.55 1045.59 1178.17 1045.4C1177.8 1045.21 1177.25 1045.11 1176.52 1045.11H1174.22V1047.87H1176.55C1178.01 1047.87 1178.73 1047.38 1178.73 1046.41ZM1178.49 1042.71C1178.49 1042.31 1178.34 1042.02 1178.02 1041.85C1177.72 1041.68 1177.25 1041.59 1176.62 1041.59H1174.22V1043.95H1176.37C1177.13 1043.95 1177.68 1043.85 1178 1043.66C1178.33 1043.47 1178.49 1043.15 1178.49 1042.71ZM1183.36 1040.42V1045.66L1183.3 1047.17L1183.27 1047.61L1187.86 1040.42H1189.59V1049H1188.27V1043.95L1188.3 1042.86L1188.34 1041.83L1183.77 1049H1182.03V1040.42H1183.36ZM1192.86 1049H1191.23L1193.67 1045.4C1193.02 1045.23 1192.52 1044.94 1192.18 1044.52C1191.84 1044.09 1191.67 1043.57 1191.67 1042.95C1191.67 1042.16 1191.94 1041.54 1192.48 1041.09C1193.01 1040.65 1193.76 1040.42 1194.71 1040.42H1198.55V1049H1197.15V1045.59H1195.06L1192.86 1049ZM1193.03 1042.97C1193.03 1043.94 1193.73 1044.42 1195.12 1044.42H1197.15V1041.59H1194.86C1194.26 1041.59 1193.8 1041.71 1193.49 1041.95C1193.18 1042.18 1193.03 1042.52 1193.03 1042.97ZM1212.5 1044.7C1212.5 1046.1 1212.15 1047.19 1211.44 1047.98C1210.73 1048.76 1209.75 1049.16 1208.5 1049.16C1207.72 1049.16 1207.04 1048.98 1206.44 1048.62C1205.84 1048.25 1205.38 1047.73 1205.05 1047.05C1204.73 1046.38 1204.57 1045.59 1204.57 1044.7C1204.57 1043.3 1204.92 1042.21 1205.62 1041.44C1206.32 1040.66 1207.29 1040.27 1208.55 1040.27C1209.76 1040.27 1210.72 1040.66 1211.43 1041.46C1212.14 1042.25 1212.5 1043.33 1212.5 1044.7ZM1206.02 1044.7C1206.02 1045.77 1206.23 1046.59 1206.66 1047.16C1207.08 1047.71 1207.71 1047.99 1208.54 1047.99C1209.36 1047.99 1209.98 1047.71 1210.41 1047.16C1210.83 1046.59 1211.05 1045.77 1211.05 1044.7C1211.05 1043.62 1210.83 1042.81 1210.4 1042.27C1209.97 1041.72 1209.34 1041.45 1208.52 1041.45C1206.85 1041.45 1206.02 1042.53 1206.02 1044.7ZM1214.29 1043.85C1214.29 1041.94 1214.58 1040.47 1215.15 1039.44C1215.73 1038.4 1216.63 1037.75 1217.87 1037.48C1219.03 1037.24 1220.33 1037 1221.76 1036.76L1222 1037.99L1221.07 1038.14C1219.86 1038.34 1218.89 1038.51 1218.16 1038.66C1217.41 1038.83 1216.84 1039.21 1216.46 1039.81C1216.09 1040.41 1215.87 1041.27 1215.82 1042.41H1215.92C1216.22 1041.98 1216.62 1041.65 1217.12 1041.4C1217.63 1041.14 1218.17 1041.02 1218.73 1041.02C1219.79 1041.02 1220.61 1041.35 1221.2 1042.03C1221.8 1042.71 1222.09 1043.66 1222.09 1044.88C1222.09 1046.23 1221.75 1047.29 1221.05 1048.04C1220.36 1048.78 1219.4 1049.16 1218.17 1049.16C1216.95 1049.16 1216 1048.69 1215.31 1047.76C1214.63 1046.83 1214.29 1045.52 1214.29 1043.85ZM1218.29 1047.99C1219.84 1047.99 1220.61 1047 1220.61 1045.02C1220.61 1043.13 1219.91 1042.19 1218.51 1042.19C1218.13 1042.19 1217.76 1042.27 1217.4 1042.42C1217.04 1042.58 1216.72 1042.78 1216.43 1043.04C1216.14 1043.29 1215.91 1043.58 1215.73 1043.88C1215.73 1046.62 1216.58 1047.99 1218.29 1047.99ZM1227.77 1049.16C1226.53 1049.16 1225.57 1048.78 1224.88 1048.02C1224.2 1047.26 1223.85 1046.17 1223.85 1044.76C1223.85 1043.32 1224.2 1042.21 1224.89 1041.44C1225.59 1040.66 1226.58 1040.27 1227.87 1040.27C1228.28 1040.27 1228.7 1040.31 1229.1 1040.4C1229.51 1040.48 1229.85 1040.59 1230.12 1040.73L1229.69 1041.9C1228.96 1041.63 1228.35 1041.49 1227.84 1041.49C1226.97 1041.49 1226.33 1041.77 1225.92 1042.31C1225.51 1042.85 1225.3 1043.66 1225.3 1044.74C1225.3 1045.78 1225.51 1046.57 1225.92 1047.12C1226.33 1047.67 1226.94 1047.95 1227.75 1047.95C1228.51 1047.95 1229.25 1047.78 1229.98 1047.45V1048.7C1229.38 1049 1228.65 1049.16 1227.77 1049.16ZM1238.55 1049H1237.12V1041.59H1234.59C1234.45 1043.47 1234.25 1044.94 1234 1046.02C1233.76 1047.08 1233.43 1047.87 1233.03 1048.37C1232.64 1048.86 1232.13 1049.11 1231.51 1049.11C1231.17 1049.11 1230.92 1049.07 1230.77 1049V1047.95C1230.88 1047.99 1231.02 1048.01 1231.2 1048.01C1231.78 1048.01 1232.23 1047.4 1232.57 1046.2C1232.91 1044.99 1233.18 1043.06 1233.38 1040.42H1238.55V1049ZM1239.92 1040.42H1241.43L1243.28 1045.3C1243.67 1046.37 1243.91 1047.15 1244 1047.64H1244.06C1244.11 1047.45 1244.22 1047.09 1244.38 1046.56C1244.55 1046.03 1244.69 1045.61 1244.8 1045.29L1246.55 1040.42H1248.06L1244.37 1050.19C1244.01 1051.14 1243.58 1051.82 1243.09 1052.23C1242.59 1052.64 1241.98 1052.84 1241.25 1052.84C1240.86 1052.84 1240.47 1052.8 1240.09 1052.71V1051.59C1240.35 1051.66 1240.66 1051.69 1241.02 1051.69C1241.47 1051.69 1241.85 1051.56 1242.16 1051.31C1242.48 1051.07 1242.73 1050.69 1242.93 1050.17L1243.38 1049.03L1239.92 1040.42ZM1253.39 1040.42H1254.7V1044.59L1258.19 1040.42H1259.71L1256.17 1044.59L1260.02 1049H1258.41L1254.7 1044.65V1049H1253.39V1044.65L1249.68 1049H1248.08L1251.92 1044.59C1250.31 1042.67 1249.13 1041.28 1248.38 1040.42H1249.92L1253.39 1044.59V1040.42ZM1262.75 1040.42V1045.66L1262.69 1047.17L1262.66 1047.61L1267.25 1040.42H1268.98V1049H1267.66V1043.95L1267.69 1042.86L1267.73 1041.83L1263.16 1049H1261.42V1040.42H1262.75ZM1278.77 1042.59C1278.77 1043.14 1278.62 1043.56 1278.3 1043.85C1277.99 1044.14 1277.55 1044.33 1276.97 1044.44V1044.51C1277.69 1044.61 1278.22 1044.82 1278.55 1045.16C1278.88 1045.48 1279.05 1045.93 1279.05 1046.48C1279.05 1047.3 1278.75 1047.92 1278.15 1048.35C1277.55 1048.78 1276.7 1049 1275.58 1049H1271.72V1040.42H1275.56C1277.7 1040.42 1278.77 1041.14 1278.77 1042.59ZM1277.64 1046.41C1277.64 1045.93 1277.45 1045.59 1277.08 1045.4C1276.7 1045.21 1276.15 1045.11 1275.43 1045.11H1273.12V1047.87H1275.46C1276.91 1047.87 1277.64 1047.38 1277.64 1046.41ZM1277.4 1042.71C1277.4 1042.31 1277.24 1042.02 1276.93 1041.85C1276.62 1041.68 1276.16 1041.59 1275.53 1041.59H1273.12V1043.95H1275.27C1276.04 1043.95 1276.58 1043.85 1276.91 1043.66C1277.23 1043.47 1277.4 1043.15 1277.4 1042.71ZM1286.23 1049L1285.96 1047.78H1285.9C1285.47 1048.32 1285.04 1048.68 1284.62 1048.88C1284.2 1049.06 1283.66 1049.16 1283.02 1049.16C1282.17 1049.16 1281.51 1048.93 1281.03 1048.49C1280.55 1048.05 1280.31 1047.42 1280.31 1046.62C1280.31 1044.88 1281.68 1043.97 1284.43 1043.88L1285.88 1043.83V1043.32C1285.88 1042.67 1285.74 1042.19 1285.46 1041.88C1285.18 1041.57 1284.73 1041.41 1284.11 1041.41C1283.66 1041.41 1283.23 1041.48 1282.82 1041.62C1282.42 1041.75 1282.04 1041.9 1281.69 1042.07L1281.26 1041.02C1281.69 1040.79 1282.16 1040.61 1282.67 1040.48C1283.18 1040.35 1283.69 1040.28 1284.19 1040.28C1285.22 1040.28 1285.99 1040.51 1286.5 1040.97C1287.01 1041.43 1287.26 1042.16 1287.26 1043.16V1049H1286.23ZM1283.34 1048.02C1284.12 1048.02 1284.74 1047.81 1285.19 1047.39C1285.64 1046.96 1285.87 1046.36 1285.87 1045.58V1044.8L1284.6 1044.86C1283.62 1044.9 1282.9 1045.05 1282.45 1045.33C1282 1045.6 1281.77 1046.04 1281.77 1046.63C1281.77 1047.08 1281.91 1047.42 1282.18 1047.66C1282.46 1047.9 1282.84 1048.02 1283.34 1048.02ZM1291.33 1040.42V1043.99H1295.98V1040.42H1297.39V1049H1295.98V1045.18H1291.33V1049H1289.92V1040.42H1291.33ZM1301.45 1040.42V1045.66L1301.39 1047.17L1301.36 1047.61L1305.95 1040.42H1307.68V1049H1306.37V1043.95L1306.39 1042.86L1306.43 1041.83L1301.87 1049H1300.12V1040.42H1301.45ZM1310.95 1049H1309.32L1311.77 1045.4C1311.11 1045.23 1310.61 1044.94 1310.27 1044.52C1309.93 1044.09 1309.77 1043.57 1309.77 1042.95C1309.77 1042.16 1310.03 1041.54 1310.57 1041.09C1311.11 1040.65 1311.85 1040.42 1312.8 1040.42H1316.65V1049H1315.24V1045.59H1313.16L1310.95 1049ZM1311.12 1042.97C1311.12 1043.94 1311.82 1044.42 1313.22 1044.42H1315.24V1041.59H1312.95C1312.35 1041.59 1311.9 1041.71 1311.59 1041.95C1311.28 1042.18 1311.12 1042.52 1311.12 1042.97Z" fill="white"/>
<path d="M910.891 1049H909.156L903.992 1043.21V1049H902.555V1037.58H903.992V1043.11L909.031 1037.58H910.664L905.703 1043.12L910.891 1049ZM919.703 1044.7C919.703 1046.1 919.349 1047.19 918.641 1047.98C917.932 1048.76 916.953 1049.16 915.703 1049.16C914.927 1049.16 914.24 1048.98 913.641 1048.62C913.042 1048.25 912.581 1047.73 912.258 1047.05C911.935 1046.38 911.773 1045.59 911.773 1044.7C911.773 1043.3 912.122 1042.21 912.82 1041.44C913.518 1040.66 914.497 1040.27 915.758 1040.27C916.966 1040.27 917.924 1040.66 918.633 1041.46C919.346 1042.25 919.703 1043.33 919.703 1044.7ZM913.227 1044.7C913.227 1045.77 913.438 1046.59 913.859 1047.16C914.286 1047.71 914.914 1047.99 915.742 1047.99C916.56 1047.99 917.182 1047.71 917.609 1047.16C918.036 1046.59 918.25 1045.77 918.25 1044.7C918.25 1043.62 918.034 1042.81 917.602 1042.27C917.174 1041.72 916.547 1041.45 915.719 1041.45C914.057 1041.45 913.227 1042.53 913.227 1044.7ZM923.344 1040.42V1043.99H928V1040.42H929.406V1049H928V1045.18H923.344V1049H921.938V1040.42H923.344ZM941.5 1044.71C941.5 1045.99 941.125 1047.02 940.375 1047.8C939.63 1048.58 938.591 1049.02 937.258 1049.12V1052.84H935.883V1049.12C934.57 1049.02 933.536 1048.57 932.781 1047.79C932.026 1047.01 931.648 1045.98 931.648 1044.71C931.648 1043.41 932.023 1042.38 932.773 1041.61C933.523 1040.84 934.576 1040.4 935.93 1040.3V1036.84H937.258V1040.3C938.576 1040.43 939.612 1040.88 940.367 1041.66C941.122 1042.45 941.5 1043.46 941.5 1044.71ZM933.117 1044.71C933.117 1046.7 934.055 1047.78 935.93 1047.98V1041.46C934.951 1041.56 934.237 1041.89 933.789 1042.44C933.341 1042.98 933.117 1043.74 933.117 1044.71ZM940.047 1044.71C940.047 1042.76 939.117 1041.68 937.258 1041.48V1047.98C939.117 1047.77 940.047 1046.68 940.047 1044.71ZM945.078 1040.42V1045.66L945.016 1047.17L944.984 1047.61L949.578 1040.42H951.305V1049H949.992V1043.95L950.016 1042.86L950.055 1041.83L945.492 1049H943.75V1040.42H945.078ZM961.664 1051.98H960.305V1049H954.336V1051.98H952.992V1047.81H953.68C954.372 1046.85 954.911 1045.73 955.297 1044.47C955.682 1043.2 955.885 1041.85 955.906 1040.42H960.414V1047.81H961.664V1051.98ZM959.055 1047.81V1041.53H957.148C957.07 1042.68 956.846 1043.84 956.477 1045C956.112 1046.16 955.664 1047.09 955.133 1047.81H959.055ZM966.992 1049.16C965.706 1049.16 964.695 1048.77 963.961 1047.99C963.232 1047.21 962.867 1046.14 962.867 1044.77C962.867 1043.4 963.208 1042.3 963.891 1041.49C964.573 1040.67 965.495 1040.27 966.656 1040.27C967.734 1040.27 968.594 1040.61 969.234 1041.31C969.875 1042.01 970.195 1042.95 970.195 1044.13V1044.98H964.32C964.346 1045.96 964.594 1046.7 965.062 1047.2C965.531 1047.71 966.195 1047.96 967.055 1047.96C967.513 1047.96 967.948 1047.92 968.359 1047.84C968.771 1047.76 969.253 1047.6 969.805 1047.37V1048.6C969.331 1048.8 968.885 1048.95 968.469 1049.03C968.052 1049.11 967.56 1049.16 966.992 1049.16ZM966.641 1041.41C965.969 1041.41 965.438 1041.63 965.047 1042.06C964.656 1042.49 964.424 1043.1 964.352 1043.87H968.719C968.708 1043.07 968.523 1042.46 968.164 1042.04C967.805 1041.62 967.297 1041.41 966.641 1041.41ZM973.781 1040.42V1043.99H978.438V1040.42H979.844V1049H978.438V1045.18H973.781V1049H972.375V1040.42H973.781ZM991.039 1051.98H989.664V1049H982.578V1040.42H983.984V1047.81H988.422V1040.42H989.828V1047.83H991.039V1051.98ZM994.016 1040.42V1045.66L993.953 1047.17L993.922 1047.61L998.516 1040.42H1000.24V1049H998.93V1043.95L998.953 1042.86L998.992 1041.83L994.43 1049H992.688V1040.42H994.016ZM1008.28 1049L1008.01 1047.78H1007.95C1007.52 1048.32 1007.09 1048.68 1006.66 1048.88C1006.24 1049.06 1005.71 1049.16 1005.06 1049.16C1004.22 1049.16 1003.56 1048.93 1003.08 1048.49C1002.6 1048.05 1002.36 1047.42 1002.36 1046.62C1002.36 1044.88 1003.73 1043.97 1006.48 1043.88L1007.93 1043.83V1043.32C1007.93 1042.67 1007.79 1042.19 1007.51 1041.88C1007.23 1041.57 1006.78 1041.41 1006.16 1041.41C1005.7 1041.41 1005.27 1041.48 1004.87 1041.62C1004.47 1041.75 1004.09 1041.9 1003.73 1042.07L1003.3 1041.02C1003.74 1040.79 1004.21 1040.61 1004.72 1040.48C1005.23 1040.35 1005.73 1040.28 1006.23 1040.28C1007.27 1040.28 1008.04 1040.51 1008.55 1040.97C1009.05 1041.43 1009.3 1042.16 1009.3 1043.16V1049H1008.28ZM1005.38 1048.02C1006.17 1048.02 1006.79 1047.81 1007.23 1047.39C1007.69 1046.96 1007.91 1046.36 1007.91 1045.58V1044.8L1006.65 1044.86C1005.66 1044.9 1004.95 1045.05 1004.49 1045.33C1004.04 1045.6 1003.82 1046.04 1003.82 1046.63C1003.82 1047.08 1003.96 1047.42 1004.23 1047.66C1004.5 1047.9 1004.89 1048.02 1005.38 1048.02ZM1018.5 1049H1017.07V1041.59H1014.55C1014.4 1043.47 1014.2 1044.94 1013.95 1046.02C1013.71 1047.08 1013.39 1047.87 1012.98 1048.37C1012.59 1048.86 1012.08 1049.11 1011.46 1049.11C1011.12 1049.11 1010.88 1049.07 1010.72 1049V1047.95C1010.83 1047.99 1010.97 1048.01 1011.16 1048.01C1011.73 1048.01 1012.18 1047.4 1012.52 1046.2C1012.87 1044.99 1013.14 1043.06 1013.33 1040.42H1018.5V1049ZM1022.62 1043.95H1025.17C1027.4 1043.95 1028.52 1044.76 1028.52 1046.38C1028.52 1047.23 1028.23 1047.88 1027.65 1048.33C1027.07 1048.78 1026.22 1049 1025.11 1049H1021.22V1040.42H1022.62V1043.95ZM1027.11 1046.45C1027.11 1045.99 1026.95 1045.66 1026.62 1045.44C1026.3 1045.22 1025.76 1045.11 1025.01 1045.11H1022.62V1047.87H1025.05C1025.71 1047.87 1026.22 1047.75 1026.57 1047.51C1026.93 1047.27 1027.11 1046.92 1027.11 1046.45ZM1032.14 1040.42V1043.99H1036.8V1040.42H1038.2V1049H1036.8V1045.18H1032.14V1049H1030.73V1040.42H1032.14ZM1048.39 1044.7C1048.39 1046.1 1048.04 1047.19 1047.33 1047.98C1046.62 1048.76 1045.64 1049.16 1044.39 1049.16C1043.61 1049.16 1042.93 1048.98 1042.33 1048.62C1041.73 1048.25 1041.27 1047.73 1040.95 1047.05C1040.62 1046.38 1040.46 1045.59 1040.46 1044.7C1040.46 1043.3 1040.81 1042.21 1041.51 1041.44C1042.21 1040.66 1043.18 1040.27 1044.45 1040.27C1045.65 1040.27 1046.61 1040.66 1047.32 1041.46C1048.03 1042.25 1048.39 1043.33 1048.39 1044.7ZM1041.91 1044.7C1041.91 1045.77 1042.12 1046.59 1042.55 1047.16C1042.97 1047.71 1043.6 1047.99 1044.43 1047.99C1045.25 1047.99 1045.87 1047.71 1046.3 1047.16C1046.72 1046.59 1046.94 1045.77 1046.94 1044.7C1046.94 1043.62 1046.72 1042.81 1046.29 1042.27C1045.86 1041.72 1045.23 1041.45 1044.41 1041.45C1042.74 1041.45 1041.91 1042.53 1041.91 1044.7ZM1054.06 1049.16C1052.83 1049.16 1051.87 1048.78 1051.18 1048.02C1050.49 1047.26 1050.15 1046.17 1050.15 1044.76C1050.15 1043.32 1050.49 1042.21 1051.19 1041.44C1051.89 1040.66 1052.88 1040.27 1054.16 1040.27C1054.58 1040.27 1054.99 1040.31 1055.4 1040.4C1055.81 1040.48 1056.15 1040.59 1056.41 1040.73L1055.98 1041.9C1055.26 1041.63 1054.64 1041.49 1054.13 1041.49C1053.27 1041.49 1052.63 1041.77 1052.22 1042.31C1051.81 1042.85 1051.6 1043.66 1051.6 1044.74C1051.6 1045.78 1051.81 1046.57 1052.22 1047.12C1052.63 1047.67 1053.24 1047.95 1054.05 1047.95C1054.8 1047.95 1055.54 1047.78 1056.27 1047.45V1048.7C1055.68 1049 1054.94 1049.16 1054.06 1049.16ZM1064.23 1041.61H1061.43V1049H1060.04V1041.61H1057.27V1040.42H1064.23V1041.61ZM1067.34 1043.95H1069.89C1072.12 1043.95 1073.23 1044.76 1073.23 1046.38C1073.23 1047.23 1072.95 1047.88 1072.37 1048.33C1071.79 1048.78 1070.94 1049 1069.83 1049H1065.94V1040.42H1067.34V1043.95ZM1071.83 1046.45C1071.83 1045.99 1071.67 1045.66 1071.34 1045.44C1071.02 1045.22 1070.48 1045.11 1069.73 1045.11H1067.34V1047.87H1069.77C1070.43 1047.87 1070.93 1047.75 1071.29 1047.51C1071.65 1047.27 1071.83 1046.92 1071.83 1046.45Z" fill="white"/>
<path d="M123.44 1049V1037.8H130.384V1039.37H125.104V1042.44H128.512V1044.01H125.104V1047.43H130.736V1049H123.44ZM137.865 1049V1044.12C137.865 1043.47 137.716 1042.99 137.417 1042.68C137.119 1042.36 136.724 1042.2 136.233 1042.2C135.06 1042.2 134.473 1042.83 134.473 1044.09V1049H132.809V1040.82H134.473V1041.61C134.985 1040.96 135.689 1040.63 136.585 1040.63C138.548 1040.63 139.529 1041.79 139.529 1044.12V1049H137.865ZM144.224 1049.19C143.008 1049.19 142.4 1048.51 142.4 1047.16V1042.26H141.136V1040.82H142.4V1038.25L144.064 1037.45V1040.82H146V1042.26H144.064V1046.73C144.064 1047.35 144.331 1047.66 144.864 1047.66C145.259 1047.66 145.664 1047.53 146.08 1047.27L145.872 1048.82C145.382 1049.07 144.832 1049.19 144.224 1049.19ZM148.159 1049V1037.8H155.103V1039.37H149.823V1042.44H153.231V1044.01H149.823V1049H148.159ZM155.653 1049V1040.82H157.317V1041.82C157.68 1041.03 158.288 1040.63 159.141 1040.63C159.674 1040.63 160.133 1040.8 160.517 1041.13L160.277 1042.66C159.882 1042.4 159.45 1042.26 158.981 1042.26C158.533 1042.26 158.144 1042.43 157.813 1042.78C157.482 1043.11 157.317 1043.65 157.317 1044.41V1049H155.653ZM163.486 1039.26C163.294 1039.45 163.06 1039.54 162.782 1039.54C162.505 1039.54 162.265 1039.45 162.062 1039.26C161.87 1039.05 161.774 1038.81 161.774 1038.54C161.774 1038.26 161.87 1038.02 162.062 1037.83C162.265 1037.63 162.505 1037.53 162.782 1037.53C163.06 1037.53 163.294 1037.63 163.486 1037.83C163.689 1038.02 163.79 1038.26 163.79 1038.54C163.79 1038.81 163.689 1039.05 163.486 1039.26ZM161.95 1049V1040.82H163.614V1049H161.95ZM169.34 1049.19C168.199 1049.19 167.292 1048.81 166.62 1048.06C165.959 1047.29 165.628 1046.24 165.628 1044.9C165.628 1043.57 165.964 1042.53 166.636 1041.77C167.308 1041.01 168.209 1040.63 169.34 1040.63C170.364 1040.63 171.207 1040.96 171.868 1041.61C172.529 1042.26 172.86 1043.21 172.86 1044.46C172.86 1044.91 172.839 1045.27 172.796 1045.53H167.292C167.303 1046.18 167.511 1046.71 167.916 1047.11C168.332 1047.52 168.812 1047.72 169.356 1047.72C170.06 1047.72 170.625 1047.44 171.052 1046.89L172.14 1048.01C171.479 1048.8 170.545 1049.19 169.34 1049.19ZM167.292 1044.18H171.196C171.185 1043.48 170.999 1042.96 170.636 1042.62C170.273 1042.27 169.841 1042.1 169.34 1042.1C168.775 1042.1 168.3 1042.27 167.916 1042.62C167.543 1042.95 167.335 1043.47 167.292 1044.18ZM179.834 1049V1044.12C179.834 1043.47 179.685 1042.99 179.386 1042.68C179.087 1042.36 178.693 1042.2 178.202 1042.2C177.029 1042.2 176.442 1042.83 176.442 1044.09V1049H174.778V1040.82H176.442V1041.61C176.954 1040.96 177.658 1040.63 178.554 1040.63C180.517 1040.63 181.498 1041.79 181.498 1044.12V1049H179.834ZM186.817 1049.19C185.782 1049.19 184.956 1048.81 184.337 1048.06C183.729 1047.29 183.425 1046.24 183.425 1044.9C183.425 1043.58 183.734 1042.54 184.353 1041.78C184.982 1041.02 185.804 1040.63 186.817 1040.63C187.617 1040.63 188.262 1040.89 188.753 1041.4V1038.22L190.417 1037.45V1049H188.753V1048.42C188.294 1048.94 187.649 1049.19 186.817 1049.19ZM187.057 1047.62C187.804 1047.62 188.369 1047.31 188.753 1046.7V1043.1C188.604 1042.85 188.38 1042.64 188.081 1042.47C187.793 1042.29 187.452 1042.2 187.057 1042.2C186.428 1042.2 185.942 1042.43 185.601 1042.9C185.26 1043.37 185.089 1044.04 185.089 1044.9C185.089 1045.71 185.265 1046.37 185.617 1046.87C185.969 1047.37 186.449 1047.62 187.057 1047.62ZM206.333 1047.53C205.224 1048.64 203.848 1049.19 202.205 1049.19C200.562 1049.19 199.186 1048.64 198.077 1047.53C196.968 1046.42 196.413 1045.04 196.413 1043.4C196.413 1041.76 196.968 1040.38 198.077 1039.27C199.186 1038.16 200.562 1037.61 202.205 1037.61C203.848 1037.61 205.224 1038.16 206.333 1039.27C207.442 1040.38 207.997 1041.76 207.997 1043.4C207.997 1045.04 207.442 1046.42 206.333 1047.53ZM198.941 1046.71C199.805 1047.6 200.893 1048.04 202.205 1048.04C203.517 1048.04 204.605 1047.6 205.469 1046.71C206.333 1045.83 206.765 1044.72 206.765 1043.4C206.765 1042.08 206.333 1040.97 205.469 1040.09C204.605 1039.2 203.517 1038.76 202.205 1038.76C200.893 1038.76 199.805 1039.2 198.941 1040.09C198.077 1040.97 197.645 1042.08 197.645 1043.4C197.645 1044.72 198.077 1045.83 198.941 1046.71ZM202.269 1046.89C201.768 1046.89 201.325 1046.79 200.941 1046.58C200.568 1046.38 200.274 1046.11 200.061 1045.77C199.858 1045.42 199.704 1045.04 199.597 1044.65C199.501 1044.25 199.453 1043.84 199.453 1043.4C199.453 1042.49 199.682 1041.69 200.141 1040.98C200.61 1040.27 201.32 1039.91 202.269 1039.91C202.866 1039.91 203.368 1040.06 203.773 1040.34C204.178 1040.62 204.461 1040.96 204.621 1041.35L203.565 1041.85C203.384 1041.57 203.197 1041.37 203.005 1041.26C202.813 1041.13 202.568 1041.06 202.269 1041.06C201.725 1041.06 201.325 1041.3 201.069 1041.77C200.813 1042.24 200.685 1042.78 200.685 1043.4C200.685 1044.02 200.818 1044.56 201.085 1045.03C201.362 1045.5 201.757 1045.74 202.269 1045.74C202.76 1045.74 203.192 1045.46 203.565 1044.9L204.637 1045.29C204.189 1046.35 203.4 1046.89 202.269 1046.89ZM213.821 1049C213.821 1046.43 215.165 1044.45 217.853 1043.06C218.44 1042.77 218.898 1042.45 219.229 1042.12C219.56 1041.78 219.725 1041.36 219.725 1040.87C219.725 1040.4 219.538 1040.01 219.165 1039.69C218.802 1039.37 218.338 1039.21 217.773 1039.21C216.653 1039.21 215.901 1039.7 215.517 1040.7L213.997 1040.01C214.274 1039.28 214.749 1038.7 215.421 1038.26C216.104 1037.83 216.893 1037.61 217.789 1037.61C218.909 1037.61 219.8 1037.92 220.461 1038.54C221.122 1039.14 221.453 1039.94 221.453 1040.92C221.453 1041.53 221.314 1042.06 221.037 1042.52C220.77 1042.98 220.456 1043.34 220.093 1043.61C219.73 1043.87 219.218 1044.18 218.557 1044.54C217 1045.37 216.098 1046.31 215.853 1047.37H221.549V1049H213.821ZM227.809 1049.19C227.073 1049.19 226.433 1049.03 225.889 1048.7C225.345 1048.35 224.929 1047.9 224.641 1047.32C224.353 1046.74 224.14 1046.14 224.001 1045.5C223.873 1044.85 223.809 1044.15 223.809 1043.4C223.809 1042.7 223.873 1042.03 224.001 1041.4C224.129 1040.76 224.332 1040.15 224.609 1039.56C224.897 1038.96 225.313 1038.49 225.857 1038.14C226.401 1037.78 227.052 1037.61 227.809 1037.61C228.545 1037.61 229.185 1037.78 229.729 1038.12C230.273 1038.45 230.689 1038.9 230.977 1039.48C231.265 1040.06 231.473 1040.67 231.601 1041.32C231.74 1041.96 231.809 1042.65 231.809 1043.4C231.809 1044.1 231.745 1044.78 231.617 1045.42C231.489 1046.05 231.281 1046.66 230.993 1047.26C230.716 1047.84 230.305 1048.31 229.761 1048.66C229.217 1049.02 228.566 1049.19 227.809 1049.19ZM227.809 1047.59C228.246 1047.59 228.62 1047.47 228.929 1047.22C229.249 1046.98 229.484 1046.64 229.633 1046.22C229.793 1045.79 229.905 1045.35 229.969 1044.89C230.044 1044.43 230.081 1043.93 230.081 1043.4C230.081 1042.83 230.044 1042.32 229.969 1041.86C229.905 1041.39 229.788 1040.95 229.617 1040.54C229.457 1040.12 229.222 1039.79 228.913 1039.56C228.604 1039.33 228.236 1039.21 227.809 1039.21C227.372 1039.21 226.993 1039.33 226.673 1039.58C226.364 1039.82 226.129 1040.16 225.969 1040.58C225.82 1041.01 225.708 1041.45 225.633 1041.91C225.569 1042.37 225.537 1042.87 225.537 1043.4C225.537 1043.97 225.569 1044.48 225.633 1044.95C225.708 1045.41 225.825 1045.85 225.985 1046.26C226.156 1046.68 226.396 1047.01 226.705 1047.24C227.014 1047.47 227.382 1047.59 227.809 1047.59ZM235.384 1049V1040.31H233.544V1039.08C234.749 1039.08 235.491 1038.65 235.768 1037.8H237.048V1049H235.384ZM242.174 1049.19V1047.5C244.36 1047.38 245.651 1046.22 246.046 1044.02C245.854 1044.25 245.56 1044.44 245.166 1044.6C244.782 1044.76 244.334 1044.84 243.822 1044.84C242.766 1044.84 241.902 1044.51 241.23 1043.85C240.558 1043.18 240.222 1042.3 240.222 1041.21C240.222 1040.14 240.579 1039.28 241.294 1038.62C242.019 1037.94 242.958 1037.61 244.11 1037.61C245.4 1037.61 246.366 1038.01 247.006 1038.81C247.656 1039.6 247.982 1040.64 247.982 1041.94C247.982 1044.11 247.496 1045.84 246.526 1047.13C245.555 1048.41 244.104 1049.1 242.174 1049.19ZM242.542 1042.63C242.926 1042.97 243.443 1043.14 244.094 1043.14C244.744 1043.14 245.262 1042.97 245.646 1042.63C246.03 1042.28 246.222 1041.8 246.222 1041.19C246.222 1040.63 246.024 1040.17 245.63 1039.83C245.235 1039.48 244.728 1039.3 244.11 1039.3C243.48 1039.3 242.968 1039.48 242.574 1039.83C242.179 1040.17 241.982 1040.63 241.982 1041.21C241.982 1041.82 242.168 1042.29 242.542 1042.63Z" fill="white"/>
</g>
<defs>
<filter id="filter0_d" x="423" y="316" width="594" height="455" filterUnits="userSpaceOnUse" color-interpolation-filters="sRGB">
<feFlood flood-opacity="0" result="BackgroundImageFix"/>
<feColorMatrix in="SourceAlpha" type="matrix" values="0 0 0 0 0 0 0 0 0 0 0 0 0 0 0 0 0 0 127 0"/>
<feOffset dy="5"/>
<feGaussianBlur stdDeviation="1.5"/>
<feColorMatrix type="matrix" values="0 0 0 0 0 0 0 0 0 0 0 0 0 0 0 0 0 0 0.1 0"/>
<feBlend mode="normal" in2="BackgroundImageFix" result="effect1_dropShadow"/>
<feBlend mode="normal" in="SourceGraphic" in2="effect1_dropShadow" result="shape"/>
</filter>
<filter id="filter1_d" x="616" y="575" width="208" height="58.8571" filterUnits="userSpaceOnUse" color-interpolation-filters="sRGB">
<feFlood flood-opacity="0" result="BackgroundImageFix"/>
<feColorMatrix in="SourceAlpha" type="matrix" values="0 0 0 0 0 0 0 0 0 0 0 0 0 0 0 0 0 0 127 0"/>
<feOffset dy="4"/>
<feGaussianBlur stdDeviation="2"/>
<feColorMatrix type="matrix" values="0 0 0 0 0 0 0 0 0 0 0 0 0 0 0 0 0 0 0.1 0"/>
<feBlend mode="normal" in2="BackgroundImageFix" result="effect1_dropShadow"/>
<feBlend mode="normal" in="SourceGraphic" in2="effect1_dropShadow" result="shape"/>
</filter>
<clipPath id="clip0">
<rect width="1440" height="1100" fill="white"/>
</clipPath>
</defs>
</svg>
